<?xml version="1.0" encoding="UTF-8" standalone="no"?>
<!DOCTYPE svg PUBLIC "-//W3C//DTD SVG 20010904//EN"
              "http://www.w3.org/TR/2001/REC-SVG-20010904/DTD/svg10.dtd">

<svg xmlns="http://www.w3.org/2000/svg"
     width="3.19667in" height="1.87667in"
     viewBox="0 0 959 563">
  <path id="Selection"
        fill="none" stroke="black" stroke-width="1"
        d="M 309.00,48.00
           C 309.00,48.00 342.00,48.00 342.00,48.00
             342.00,48.00 342.00,245.00 342.00,245.00
             342.00,245.00 309.00,245.00 309.00,245.00
             309.00,245.00 309.00,48.00 309.00,48.00 Z
           M 677.00,48.00
           C 677.00,48.00 710.00,48.00 710.00,48.00
             710.00,48.00 710.00,138.00 710.00,138.00
             710.00,138.00 710.00,156.00 710.00,156.00
             710.04,158.88 710.22,165.68 715.00,163.83
             717.43,162.89 724.37,154.40 726.42,152.00
             726.42,152.00 751.58,123.00 751.58,123.00
             754.09,120.10 760.67,111.64 764.01,110.70
             766.62,109.97 769.66,111.50 772.00,112.54
             779.34,115.81 780.09,116.36 788.00,119.00
             786.15,125.29 781.46,128.26 777.17,133.00
             777.17,133.00 755.26,156.75 755.26,156.75
             753.22,158.98 746.09,165.68 745.47,168.09
             744.80,170.73 746.90,173.04 748.36,175.00
             748.36,175.00 758.13,187.00 758.13,187.00
             758.13,187.00 782.87,217.91 782.87,217.91
             786.97,222.97 794.52,231.50 797.00,237.00
             797.00,237.00 776.00,244.07 776.00,244.07
             773.46,244.97 768.90,247.19 766.30,246.33
             764.16,245.63 762.20,242.76 760.91,241.00
             760.91,241.00 750.86,227.00 750.86,227.00
             750.86,227.00 725.56,192.00 725.56,192.00
             721.18,185.86 717.04,178.55 711.00,174.00
             711.00,174.00 710.00,200.00 710.00,200.00
             710.00,200.00 710.00,245.00 710.00,245.00
             710.00,245.00 677.00,245.00 677.00,245.00
             677.00,245.00 677.00,48.00 677.00,48.00 Z
           M 39.00,234.00
           C 40.54,230.84 46.94,218.40 50.18,217.91
             52.50,217.56 61.21,223.78 64.00,225.22
             74.34,230.54 87.88,231.07 95.58,221.00
             98.02,217.80 99.20,214.01 98.80,210.00
             97.87,200.69 87.98,193.30 81.00,188.15
             66.07,177.14 44.98,164.26 46.04,143.00
             46.23,139.36 47.55,135.38 48.92,132.00
             59.25,106.49 93.26,104.29 116.00,111.75
             120.31,113.16 125.04,115.75 129.00,118.00
             129.00,118.00 120.00,134.00 120.00,134.00
             109.98,128.71 108.65,126.87 97.00,127.00
             94.65,127.03 92.23,127.04 90.00,127.89
             82.46,130.77 77.38,139.33 81.31,147.00
             84.00,152.23 94.08,159.92 99.00,163.63
             111.34,172.94 128.81,184.04 132.47,200.00
             133.13,202.88 133.03,206.99 133.00,210.00
             132.57,245.12 87.96,253.43 61.00,245.43
             52.00,242.76 46.79,238.77 39.00,234.00 Z
           M 185.00,130.00
           C 191.39,124.99 194.60,120.46 202.00,115.70
             211.98,109.27 223.42,107.87 235.00,108.00
             243.04,108.10 253.00,110.95 260.00,114.86
             284.12,128.32 291.30,153.08 291.00,179.00
             290.93,184.78 289.85,190.41 288.47,196.00
             281.06,226.19 260.25,247.63 228.00,248.00
             215.94,248.13 207.88,246.59 198.00,239.24
             198.00,239.24 185.00,228.00 185.00,228.00
             185.00,228.00 184.00,258.00 184.00,258.00
             184.00,258.00 184.00,313.00 184.00,313.00
             184.00,313.00 151.00,313.00 151.00,313.00
             151.00,313.00 151.00,111.00 151.00,111.00
             151.00,111.00 184.00,111.00 184.00,111.00
             184.00,111.00 185.00,130.00 185.00,130.00 Z
           M 557.00,128.00
           C 557.00,128.00 573.00,115.90 573.00,115.90
             583.66,109.29 594.77,107.86 607.00,108.00
             631.91,108.30 648.96,125.10 649.00,150.00
             649.00,150.00 649.00,245.00 649.00,245.00
             649.00,245.00 625.00,245.00 625.00,245.00
             623.01,245.00 619.19,245.23 617.60,243.98
             615.62,242.41 616.00,238.30 616.00,236.00
             616.00,236.00 616.00,183.00 616.00,183.00
             616.00,175.95 615.73,156.09 614.32,150.00
             612.89,143.82 607.77,136.37 602.00,133.57
             599.95,132.57 597.23,132.06 595.00,131.45
             592.02,130.62 590.22,129.87 587.00,130.22
             575.23,131.52 563.76,137.52 559.13,149.00
             556.27,156.07 557.00,164.47 557.00,172.00
             557.00,172.00 557.00,210.00 557.00,210.00
             557.00,210.00 557.00,236.00 557.00,236.00
             557.00,237.99 557.23,241.81 555.98,243.40
             554.41,245.38 550.30,245.00 548.00,245.00
             548.00,245.00 529.00,245.00 529.00,245.00
             526.87,244.98 523.49,245.26 522.02,243.40
             520.96,242.06 521.03,239.62 521.00,238.00
             521.00,238.00 521.00,214.00 521.00,214.00
             521.00,214.00 521.00,111.00 521.00,111.00
             521.00,111.00 557.00,111.00 557.00,111.00
             557.00,111.00 557.00,128.00 557.00,128.00 Z
           M 368.00,111.00
           C 368.00,111.00 401.00,111.00 401.00,111.00
             401.00,111.00 401.00,181.00 401.00,181.00
             401.00,181.00 401.83,192.00 401.83,192.00
             402.81,202.06 402.47,210.89 410.32,218.67
             421.02,229.26 440.35,227.53 450.90,217.70
             453.74,215.05 456.51,210.55 458.10,207.00
             462.11,198.00 461.00,183.96 461.00,174.00
             461.00,174.00 461.00,111.00 461.00,111.00
             461.00,111.00 495.00,111.00 495.00,111.00
             495.00,111.00 495.00,245.00 495.00,245.00
             495.00,245.00 469.00,245.00 469.00,245.00
             469.00,245.00 462.02,243.40 462.02,243.40
             462.02,243.40 461.00,228.00 461.00,228.00
             455.60,230.51 451.06,236.29 445.00,240.12
             434.54,246.75 424.13,248.14 412.00,248.00
             392.79,247.77 376.92,240.21 370.41,221.00
             367.90,213.61 368.00,190.70 368.00,182.00
             368.00,182.00 368.00,111.00 368.00,111.00 Z
           M 831.00,113.00
           C 831.00,113.00 875.00,135.18 875.00,135.18
             875.00,135.18 910.00,152.68 910.00,152.68
             910.00,152.68 928.00,161.64 928.00,161.64
             930.54,162.85 935.51,164.90 936.98,167.27
             938.45,169.66 938.05,177.92 938.00,181.00
             937.96,182.96 938.00,185.04 936.98,186.79
             934.98,190.21 918.40,197.77 914.00,199.72
             914.00,199.72 892.00,210.77 892.00,210.77
             892.00,210.77 857.00,228.08 857.00,228.08
             851.72,230.71 835.54,238.93 831.00,240.00
             831.00,240.00 831.00,227.00 831.00,227.00
             831.00,227.00 832.02,219.34 832.02,219.34
             832.02,219.34 851.00,208.86 851.00,208.86
             851.00,208.86 914.00,178.00 914.00,178.00
             909.52,172.41 901.41,169.96 895.00,166.75
             895.00,166.75 854.00,146.74 854.00,146.74
             854.00,146.74 841.00,140.42 841.00,140.42
             838.06,139.13 833.73,137.68 832.02,134.79
             830.80,132.71 831.00,129.37 831.00,127.00
             831.00,127.00 831.00,113.00 831.00,113.00 Z
           M 216.00,127.29
           C 202.78,129.52 192.33,139.41 187.84,152.00
             187.84,152.00 185.72,162.00 185.72,162.00
             184.43,168.25 184.03,166.98 184.00,174.00
             184.00,174.00 184.00,184.00 184.00,184.00
             184.03,191.00 184.42,189.75 185.72,196.00
             186.55,200.05 186.85,203.02 188.47,207.00
             194.61,222.08 207.69,230.72 224.00,228.71
             235.42,227.31 243.51,220.35 248.44,210.00
             248.44,210.00 251.07,202.00 251.07,202.00
             253.69,194.13 254.99,189.37 255.00,181.00
             255.00,181.00 255.00,171.00 255.00,171.00
             254.97,153.09 246.18,131.96 227.00,127.82
             222.83,126.92 220.21,126.89 216.00,127.29 Z
           M 523.00,316.00
           C 523.00,316.00 524.00,316.00 524.00,316.00
             524.00,316.00 523.00,317.00 523.00,317.00
             523.00,317.00 523.00,316.00 523.00,316.00 Z
           M 526.00,316.00
           C 527.90,320.78 527.00,337.86 527.00,344.00
             527.00,344.00 527.00,405.00 527.00,405.00
             527.00,411.45 527.88,432.27 526.00,437.00
             526.00,437.00 526.00,316.00 526.00,316.00 Z
           M 519.00,317.00
           C 519.00,317.00 520.00,317.00 520.00,317.00
             520.00,317.00 519.00,318.00 519.00,318.00
             519.00,318.00 519.00,317.00 519.00,317.00 Z
           M 559.00,319.00
           C 559.00,319.00 565.00,320.00 565.00,320.00
             565.00,320.00 559.00,319.00 559.00,319.00 Z
           M 552.00,324.00
           C 552.00,324.00 553.00,324.00 553.00,324.00
             553.00,324.00 552.00,325.00 552.00,325.00
             552.00,325.00 552.00,324.00 552.00,324.00 Z
           M 571.00,324.00
           C 571.00,324.00 572.00,324.00 572.00,324.00
             572.00,324.00 571.00,325.00 571.00,325.00
             571.00,325.00 571.00,324.00 571.00,324.00 Z
           M 552.00,336.00
           C 552.00,336.00 553.00,336.00 553.00,336.00
             553.00,336.00 552.00,337.00 552.00,337.00
             552.00,337.00 552.00,336.00 552.00,336.00 Z
           M 266.00,340.00
           C 266.00,340.00 267.00,366.00 267.00,366.00
             267.00,366.00 267.00,414.00 267.00,414.00
             267.00,414.00 266.00,437.00 266.00,437.00
             266.00,437.00 266.00,340.00 266.00,340.00 Z
           M 556.00,340.00
           C 556.00,340.00 557.00,340.00 557.00,340.00
             557.00,340.00 556.00,341.00 556.00,341.00
             556.00,341.00 556.00,340.00 556.00,340.00 Z
           M 567.00,340.00
           C 567.00,340.00 568.00,340.00 568.00,340.00
             568.00,340.00 567.00,341.00 567.00,341.00
             567.00,341.00 567.00,340.00 567.00,340.00 Z
           M 558.00,341.00
           C 558.00,341.00 559.00,341.00 559.00,341.00
             559.00,341.00 558.00,342.00 558.00,342.00
             558.00,342.00 558.00,341.00 558.00,341.00 Z
           M 565.00,341.00
           C 565.00,341.00 566.00,341.00 566.00,341.00
             566.00,341.00 565.00,342.00 565.00,342.00
             565.00,342.00 565.00,341.00 565.00,341.00 Z
           M 741.00,351.00
           C 743.81,347.44 745.12,345.61 749.00,349.00
             744.84,348.42 744.59,348.97 741.00,351.00 Z
           M 352.00,351.00
           C 352.00,351.00 353.00,351.00 353.00,351.00
             353.00,351.00 352.00,352.00 352.00,352.00
             352.00,352.00 352.00,351.00 352.00,351.00 Z
           M 381.00,351.00
           C 381.00,351.00 382.00,351.00 382.00,351.00
             382.00,351.00 381.00,352.00 381.00,352.00
             381.00,352.00 381.00,351.00 381.00,351.00 Z
           M 404.00,351.00
           C 404.00,351.00 405.00,351.00 405.00,351.00
             405.00,351.00 404.00,352.00 404.00,352.00
             404.00,352.00 404.00,351.00 404.00,351.00 Z
           M 627.00,351.00
           C 627.00,351.00 628.00,351.00 628.00,351.00
             628.00,351.00 627.00,352.00 627.00,352.00
             627.00,352.00 627.00,351.00 627.00,351.00 Z
           M 645.00,351.00
           C 645.00,351.00 646.00,351.00 646.00,351.00
             646.00,351.00 645.00,352.00 645.00,352.00
             645.00,352.00 645.00,351.00 645.00,351.00 Z
           M 709.00,351.00
           C 709.00,351.00 710.00,351.00 710.00,351.00
             710.00,351.00 709.00,352.00 709.00,352.00
             709.00,352.00 709.00,351.00 709.00,351.00 Z
           M 320.00,352.00
           C 320.00,352.00 321.00,352.00 321.00,352.00
             321.00,352.00 320.00,353.00 320.00,353.00
             320.00,353.00 320.00,352.00 320.00,352.00 Z
           M 355.00,352.00
           C 355.00,352.00 356.00,352.00 356.00,352.00
             356.00,352.00 355.00,353.00 355.00,353.00
             355.00,353.00 355.00,352.00 355.00,352.00 Z
           M 408.00,352.00
           C 408.00,352.00 409.00,352.00 409.00,352.00
             409.00,352.00 408.00,353.00 408.00,353.00
             408.00,353.00 408.00,352.00 408.00,352.00 Z
           M 476.00,352.00
           C 476.00,352.00 477.00,352.00 477.00,352.00
             477.00,352.00 476.00,353.00 476.00,353.00
             476.00,353.00 476.00,352.00 476.00,352.00 Z
           M 501.00,352.00
           C 501.00,352.00 502.00,352.00 502.00,352.00
             502.00,352.00 501.00,353.00 501.00,353.00
             501.00,353.00 501.00,352.00 501.00,352.00 Z
           M 571.00,352.00
           C 571.00,352.00 572.00,372.00 572.00,372.00
             572.00,372.00 572.00,414.00 572.00,414.00
             572.00,414.00 571.00,437.00 571.00,437.00
             571.00,437.00 571.00,352.00 571.00,352.00 Z
           M 624.00,352.00
           C 624.00,352.00 625.00,352.00 625.00,352.00
             625.00,352.00 624.00,353.00 624.00,353.00
             624.00,353.00 624.00,352.00 624.00,352.00 Z
           M 649.00,352.00
           C 649.00,352.00 650.00,352.00 650.00,352.00
             650.00,352.00 649.00,353.00 649.00,353.00
             649.00,353.00 649.00,352.00 649.00,352.00 Z
           M 732.00,352.00
           C 732.00,352.00 733.00,352.00 733.00,352.00
             733.00,352.00 732.00,353.00 732.00,353.00
             732.00,353.00 732.00,352.00 732.00,352.00 Z
           M 753.00,352.00
           C 753.00,352.00 757.00,356.00 757.00,356.00
             757.00,356.00 753.00,352.00 753.00,352.00 Z
           M 329.00,353.00
           C 329.00,353.00 330.00,353.00 330.00,353.00
             330.00,353.00 329.00,354.00 329.00,354.00
             329.00,354.00 329.00,353.00 329.00,353.00 Z
           M 373.00,353.00
           C 373.00,353.00 374.00,353.00 374.00,353.00
             374.00,353.00 373.00,354.00 373.00,354.00
             373.00,354.00 373.00,353.00 373.00,353.00 Z
           M 473.00,353.00
           C 473.00,353.00 474.00,353.00 474.00,353.00
             474.00,353.00 473.00,354.00 473.00,354.00
             473.00,354.00 473.00,353.00 473.00,353.00 Z
           M 703.00,353.00
           C 703.00,353.00 704.00,353.00 704.00,353.00
             704.00,353.00 703.00,354.00 703.00,354.00
             703.00,354.00 703.00,353.00 703.00,353.00 Z
           M 327.00,354.00
           C 327.00,354.00 328.00,354.00 328.00,354.00
             328.00,354.00 327.00,355.00 327.00,355.00
             327.00,355.00 327.00,354.00 327.00,354.00 Z
           M 471.00,354.00
           C 471.00,354.00 472.00,354.00 472.00,354.00
             472.00,354.00 471.00,355.00 471.00,355.00
             471.00,355.00 471.00,354.00 471.00,354.00 Z
           M 701.00,354.00
           C 701.00,354.00 702.00,354.00 702.00,354.00
             702.00,354.00 701.00,355.00 701.00,355.00
             701.00,355.00 701.00,354.00 701.00,354.00 Z
           M 737.00,354.00
           C 737.00,354.00 738.00,354.00 738.00,354.00
             738.00,354.00 737.00,355.00 737.00,355.00
             737.00,355.00 737.00,354.00 737.00,354.00 Z
           M 357.00,355.00
           C 357.00,355.00 358.00,355.00 358.00,355.00
             358.00,355.00 357.00,356.00 357.00,356.00
             357.00,356.00 357.00,355.00 357.00,355.00 Z
           M 469.00,355.00
           C 469.00,355.00 470.00,355.00 470.00,355.00
             470.00,355.00 469.00,356.00 469.00,356.00
             469.00,356.00 469.00,355.00 469.00,355.00 Z
           M 610.00,355.00
           C 610.00,355.00 611.00,355.00 611.00,355.00
             611.00,355.00 610.00,356.00 610.00,356.00
             610.00,356.00 610.00,355.00 610.00,355.00 Z
           M 655.00,355.00
           C 655.00,355.00 656.00,355.00 656.00,355.00
             656.00,355.00 655.00,356.00 655.00,356.00
             655.00,356.00 655.00,355.00 655.00,355.00 Z
           M 699.00,355.00
           C 699.00,355.00 700.00,355.00 700.00,355.00
             700.00,355.00 699.00,356.00 699.00,356.00
             699.00,356.00 699.00,355.00 699.00,355.00 Z
           M 324.00,356.00
           C 324.00,356.00 322.00,359.00 322.00,359.00
             322.00,359.00 322.00,358.00 322.00,358.00
             322.00,358.00 324.00,356.00 324.00,356.00 Z
           M 356.00,357.00
           C 356.00,357.00 357.00,357.00 357.00,357.00
             357.00,357.00 356.00,358.00 356.00,358.00
             356.00,358.00 356.00,357.00 356.00,357.00 Z
           M 466.00,357.00
           C 466.00,357.00 467.00,357.00 467.00,357.00
             467.00,357.00 466.00,358.00 466.00,358.00
             466.00,358.00 466.00,357.00 466.00,357.00 Z
           M 615.00,357.00
           C 615.00,357.00 612.00,359.00 612.00,359.00
             612.00,359.00 613.00,359.00 613.00,359.00
             613.00,359.00 615.00,357.00 615.00,357.00 Z
           M 658.00,357.00
           C 658.00,357.00 662.00,361.00 662.00,361.00
             662.00,361.00 658.00,357.00 658.00,357.00 Z
           M 696.00,357.00
           C 696.00,357.00 697.00,357.00 697.00,357.00
             697.00,357.00 696.00,358.00 696.00,358.00
             696.00,358.00 696.00,357.00 696.00,357.00 Z
           M 355.00,359.00
           C 355.00,359.00 356.00,359.00 356.00,359.00
             356.00,359.00 355.00,360.00 355.00,360.00
             355.00,360.00 355.00,359.00 355.00,359.00 Z
           M 421.00,359.00
           C 421.00,359.00 422.00,359.00 422.00,359.00
             422.00,359.00 421.00,360.00 421.00,360.00
             421.00,360.00 421.00,359.00 421.00,359.00 Z
           M 694.00,359.00
           C 694.00,359.00 695.00,359.00 695.00,359.00
             695.00,359.00 694.00,360.00 694.00,360.00
             694.00,360.00 694.00,359.00 694.00,359.00 Z
           M 462.00,360.00
           C 462.00,360.00 459.00,364.00 459.00,364.00
             459.00,364.00 462.00,360.00 462.00,360.00 Z
           M 354.00,361.00
           C 354.00,361.00 355.00,361.00 355.00,361.00
             355.00,361.00 354.00,362.00 354.00,362.00
             354.00,362.00 354.00,361.00 354.00,361.00 Z
           M 692.00,361.00
           C 692.00,361.00 690.00,364.00 690.00,364.00
             690.00,364.00 690.00,363.00 690.00,363.00
             690.00,363.00 692.00,361.00 692.00,361.00 Z
           M 754.00,361.00
           C 754.00,361.00 755.00,361.00 755.00,361.00
             755.00,361.00 754.00,362.00 754.00,362.00
             754.00,362.00 754.00,361.00 754.00,361.00 Z
           M 353.00,363.00
           C 353.00,363.00 354.00,363.00 354.00,363.00
             354.00,363.00 353.00,364.00 353.00,364.00
             353.00,364.00 353.00,363.00 353.00,363.00 Z
           M 424.00,363.00
           C 424.00,363.00 425.00,363.00 425.00,363.00
             425.00,363.00 424.00,364.00 424.00,364.00
             424.00,364.00 424.00,363.00 424.00,363.00 Z
           M 664.00,364.00
           C 664.00,364.00 665.00,364.00 665.00,364.00
             665.00,364.00 664.00,365.00 664.00,365.00
             664.00,365.00 664.00,364.00 664.00,364.00 Z
           M 750.00,364.00
           C 750.00,364.00 751.00,364.00 751.00,364.00
             751.00,364.00 750.00,365.00 750.00,365.00
             750.00,365.00 750.00,364.00 750.00,364.00 Z
           M 352.00,365.00
           C 352.00,365.00 353.00,365.00 353.00,365.00
             353.00,365.00 352.00,366.00 352.00,366.00
             352.00,366.00 352.00,365.00 352.00,365.00 Z
           M 425.00,365.00
           C 425.00,365.00 426.00,365.00 426.00,365.00
             426.00,365.00 425.00,366.00 425.00,366.00
             425.00,366.00 425.00,365.00 425.00,365.00 Z
           M 665.00,366.00
           C 665.00,366.00 666.00,366.00 666.00,366.00
             666.00,366.00 665.00,367.00 665.00,367.00
             665.00,367.00 665.00,366.00 665.00,366.00 Z
           M 688.00,366.00
           C 688.00,366.00 689.00,366.00 689.00,366.00
             689.00,366.00 688.00,367.00 688.00,367.00
             688.00,367.00 688.00,366.00 688.00,366.00 Z
           M 750.00,366.00
           C 750.00,366.00 751.00,366.00 751.00,366.00
             751.00,366.00 750.00,367.00 750.00,367.00
             750.00,367.00 750.00,366.00 750.00,366.00 Z
           M 342.00,367.00
           C 342.00,367.00 343.00,367.00 343.00,367.00
             343.00,367.00 342.00,368.00 342.00,368.00
             342.00,368.00 342.00,367.00 342.00,367.00 Z
           M 351.00,367.00
           C 351.00,367.00 352.00,367.00 352.00,367.00
             352.00,367.00 351.00,368.00 351.00,368.00
             351.00,368.00 351.00,367.00 351.00,367.00 Z
           M 397.00,367.00
           C 397.00,367.00 398.00,367.00 398.00,367.00
             398.00,367.00 397.00,368.00 397.00,368.00
             397.00,368.00 397.00,367.00 397.00,367.00 Z
           M 426.00,367.00
           C 426.00,367.00 427.00,367.00 427.00,367.00
             427.00,367.00 426.00,368.00 426.00,368.00
             426.00,368.00 426.00,367.00 426.00,367.00 Z
           M 627.00,367.00
           C 627.00,367.00 628.00,367.00 628.00,367.00
             628.00,367.00 627.00,368.00 627.00,368.00
             627.00,368.00 627.00,367.00 627.00,367.00 Z
           M 637.00,367.00
           C 637.00,367.00 638.00,367.00 638.00,367.00
             638.00,367.00 637.00,368.00 637.00,368.00
             637.00,368.00 637.00,367.00 637.00,367.00 Z
           M 725.00,367.00
           C 725.00,367.00 726.00,367.00 726.00,367.00
             726.00,367.00 725.00,368.00 725.00,368.00
             725.00,368.00 725.00,367.00 725.00,367.00 Z
           M 346.00,368.00
           C 346.00,368.00 347.00,368.00 347.00,368.00
             347.00,368.00 346.00,369.00 346.00,369.00
             346.00,369.00 346.00,368.00 346.00,368.00 Z
           M 378.00,368.00
           C 378.00,368.00 379.00,368.00 379.00,368.00
             379.00,368.00 378.00,369.00 378.00,369.00
             378.00,369.00 378.00,368.00 378.00,368.00 Z
           M 484.00,368.00
           C 484.00,368.00 485.00,368.00 485.00,368.00
             485.00,368.00 484.00,369.00 484.00,369.00
             484.00,369.00 484.00,368.00 484.00,368.00 Z
           M 500.00,368.00
           C 500.00,368.00 501.00,368.00 501.00,368.00
             501.00,368.00 500.00,369.00 500.00,369.00
             500.00,369.00 500.00,368.00 500.00,368.00 Z
           M 624.00,368.00
           C 624.00,368.00 625.00,368.00 625.00,368.00
             625.00,368.00 624.00,369.00 624.00,369.00
             624.00,369.00 624.00,368.00 624.00,368.00 Z
           M 640.00,368.00
           C 640.00,368.00 641.00,368.00 641.00,368.00
             641.00,368.00 640.00,369.00 640.00,369.00
             640.00,369.00 640.00,368.00 640.00,368.00 Z
           M 666.00,368.00
           C 666.00,368.00 667.00,368.00 667.00,368.00
             667.00,368.00 666.00,369.00 666.00,369.00
             666.00,369.00 666.00,368.00 666.00,368.00 Z
           M 687.00,368.00
           C 687.00,368.00 688.00,368.00 688.00,368.00
             688.00,368.00 687.00,369.00 687.00,369.00
             687.00,369.00 687.00,368.00 687.00,368.00 Z
           M 727.00,368.00
           C 727.00,368.00 728.00,368.00 728.00,368.00
             728.00,368.00 727.00,369.00 727.00,369.00
             727.00,369.00 727.00,368.00 727.00,368.00 Z
           M 330.00,369.00
           C 330.00,369.00 331.00,369.00 331.00,369.00
             331.00,369.00 330.00,370.00 330.00,370.00
             330.00,370.00 330.00,369.00 330.00,369.00 Z
           M 348.00,369.00
           C 348.00,369.00 349.00,369.00 349.00,369.00
             349.00,369.00 348.00,370.00 348.00,370.00
             348.00,370.00 348.00,369.00 348.00,369.00 Z
           M 350.00,369.00
           C 350.00,369.00 351.00,369.00 351.00,369.00
             351.00,369.00 350.00,370.00 350.00,370.00
             350.00,370.00 350.00,369.00 350.00,369.00 Z
           M 375.00,369.00
           C 375.00,369.00 376.00,369.00 376.00,369.00
             376.00,369.00 375.00,370.00 375.00,370.00
             375.00,370.00 375.00,369.00 375.00,369.00 Z
           M 502.00,369.00
           C 502.00,369.00 503.00,369.00 503.00,369.00
             503.00,369.00 502.00,370.00 502.00,370.00
             502.00,370.00 502.00,369.00 502.00,369.00 Z
           M 622.00,369.00
           C 622.00,369.00 623.00,369.00 623.00,369.00
             623.00,369.00 622.00,370.00 622.00,370.00
             622.00,370.00 622.00,369.00 622.00,369.00 Z
           M 642.00,369.00
           C 642.00,369.00 643.00,369.00 643.00,369.00
             643.00,369.00 642.00,370.00 642.00,370.00
             642.00,370.00 642.00,369.00 642.00,369.00 Z
           M 427.00,370.00
           C 427.00,370.00 428.00,370.00 428.00,370.00
             428.00,370.00 427.00,371.00 427.00,371.00
             427.00,371.00 427.00,370.00 427.00,370.00 Z
           M 454.00,370.00
           C 454.00,370.00 455.00,370.00 455.00,370.00
             455.00,370.00 454.00,371.00 454.00,371.00
             454.00,371.00 454.00,370.00 454.00,370.00 Z
           M 620.00,370.00
           C 620.00,370.00 621.00,370.00 621.00,370.00
             621.00,370.00 620.00,371.00 620.00,371.00
             620.00,371.00 620.00,370.00 620.00,370.00 Z
           M 686.00,370.00
           C 686.00,370.00 687.00,370.00 687.00,370.00
             687.00,370.00 686.00,371.00 686.00,371.00
             686.00,371.00 686.00,370.00 686.00,370.00 Z
           M 478.00,371.00
           C 478.00,371.00 479.00,371.00 479.00,371.00
             479.00,371.00 478.00,372.00 478.00,372.00
             478.00,372.00 478.00,371.00 478.00,371.00 Z
           M 645.00,371.00
           C 645.00,371.00 646.00,371.00 646.00,371.00
             646.00,371.00 645.00,372.00 645.00,372.00
             645.00,372.00 645.00,371.00 645.00,371.00 Z
           M 617.00,372.00
           C 617.00,372.00 615.00,375.00 615.00,375.00
             615.00,375.00 615.00,374.00 615.00,374.00
             615.00,374.00 617.00,372.00 617.00,372.00 Z
           M 753.00,372.00
           C 753.00,372.00 754.00,372.00 754.00,372.00
             754.00,372.00 753.00,373.00 753.00,373.00
             753.00,373.00 753.00,372.00 753.00,372.00 Z
           M 325.00,373.00
           C 325.00,373.00 326.00,373.00 326.00,373.00
             326.00,373.00 325.00,374.00 325.00,374.00
             325.00,374.00 325.00,373.00 325.00,373.00 Z
           M 646.00,373.00
           C 646.00,373.00 647.00,373.00 647.00,373.00
             647.00,373.00 646.00,374.00 646.00,374.00
             646.00,374.00 646.00,373.00 646.00,373.00 Z
           M 685.00,373.00
           C 685.00,373.00 686.00,373.00 686.00,373.00
             686.00,373.00 685.00,374.00 685.00,374.00
             685.00,374.00 685.00,373.00 685.00,373.00 Z
           M 732.00,373.00
           C 732.00,373.00 733.00,373.00 733.00,373.00
             733.00,373.00 732.00,374.00 732.00,374.00
             732.00,374.00 732.00,373.00 732.00,373.00 Z
           M 452.00,374.00
           C 452.00,374.00 453.00,374.00 453.00,374.00
             453.00,374.00 452.00,375.00 452.00,375.00
             452.00,375.00 452.00,374.00 452.00,374.00 Z
           M 324.00,375.00
           C 324.00,375.00 325.00,375.00 325.00,375.00
             325.00,375.00 324.00,376.00 324.00,376.00
             324.00,376.00 324.00,375.00 324.00,375.00 Z
           M 409.00,375.00
           C 409.00,375.00 410.00,375.00 410.00,375.00
             410.00,375.00 409.00,376.00 409.00,376.00
             409.00,376.00 409.00,375.00 409.00,375.00 Z
           M 647.00,375.00
           C 647.00,375.00 648.00,375.00 648.00,375.00
             648.00,375.00 647.00,376.00 647.00,376.00
             647.00,376.00 647.00,375.00 647.00,375.00 Z
           M 668.00,375.00
           C 668.00,375.00 669.00,375.00 669.00,375.00
             669.00,375.00 668.00,376.00 668.00,376.00
             668.00,376.00 668.00,375.00 668.00,375.00 Z
           M 705.00,375.00
           C 705.00,375.00 706.00,375.00 706.00,375.00
             706.00,375.00 705.00,376.00 705.00,376.00
             705.00,376.00 705.00,375.00 705.00,375.00 Z
           M 733.00,375.00
           C 733.00,375.00 734.00,375.00 734.00,375.00
             734.00,375.00 733.00,376.00 733.00,376.00
             733.00,376.00 733.00,375.00 733.00,375.00 Z
           M 473.00,376.00
           C 473.00,376.00 474.00,376.00 474.00,376.00
             474.00,376.00 473.00,377.00 473.00,377.00
             473.00,377.00 473.00,376.00 473.00,376.00 Z
           M 754.00,377.00
           C 754.00,377.00 755.00,377.00 755.00,377.00
             755.00,377.00 754.00,378.00 754.00,378.00
             754.00,378.00 754.00,377.00 754.00,377.00 Z
           M 684.00,378.00
           C 685.31,381.30 685.31,383.70 684.00,387.00
             684.00,387.00 684.00,378.00 684.00,378.00 Z
           M 734.00,378.00
           C 734.00,378.00 735.00,378.00 735.00,378.00
             735.00,378.00 734.00,379.00 734.00,379.00
             734.00,379.00 734.00,378.00 734.00,378.00 Z
           M 429.00,379.00
           C 429.00,379.00 430.00,379.00 430.00,379.00
             430.00,379.00 429.00,380.00 429.00,380.00
             429.00,380.00 429.00,379.00 429.00,379.00 Z
           M 704.00,379.00
           C 704.00,379.00 704.00,385.00 704.00,385.00
             704.00,385.00 704.00,379.00 704.00,379.00 Z
           M 471.00,380.00
           C 471.00,380.00 472.00,380.00 472.00,380.00
             472.00,380.00 471.00,381.00 471.00,381.00
             471.00,381.00 471.00,380.00 471.00,380.00 Z
           M 393.00,381.00
           C 393.00,381.00 394.00,381.00 394.00,381.00
             394.00,381.00 393.00,382.00 393.00,382.00
             393.00,382.00 393.00,381.00 393.00,381.00 Z
           M 321.00,382.00
           C 321.00,382.00 322.00,382.00 322.00,382.00
             322.00,382.00 321.00,383.00 321.00,383.00
             321.00,383.00 321.00,382.00 321.00,382.00 Z
           M 470.00,382.00
           C 470.00,382.00 471.00,382.00 471.00,382.00
             471.00,382.00 470.00,383.00 470.00,383.00
             470.00,383.00 470.00,382.00 470.00,382.00 Z
           M 383.00,383.00
           C 383.00,383.00 384.00,383.00 384.00,383.00
             384.00,383.00 383.00,384.00 383.00,384.00
             383.00,384.00 383.00,383.00 383.00,383.00 Z
           M 449.00,383.00
           C 449.00,383.00 450.00,383.00 450.00,383.00
             450.00,383.00 449.00,384.00 449.00,384.00
             449.00,384.00 449.00,383.00 449.00,383.00 Z
           M 669.00,383.00
           C 669.00,383.00 670.00,397.00 670.00,397.00
             670.00,397.00 670.00,422.00 670.00,422.00
             670.00,422.00 669.00,437.00 669.00,437.00
             669.00,437.00 669.00,383.00 669.00,383.00 Z
           M 377.00,385.00
           C 377.00,385.00 378.00,385.00 378.00,385.00
             378.00,385.00 377.00,386.00 377.00,386.00
             377.00,386.00 377.00,385.00 377.00,385.00 Z
           M 734.00,385.00
           C 734.00,385.00 735.00,385.00 735.00,385.00
             735.00,385.00 734.00,386.00 734.00,386.00
             734.00,386.00 734.00,385.00 734.00,385.00 Z
           M 375.00,386.00
           C 375.00,386.00 376.00,386.00 376.00,386.00
             376.00,386.00 375.00,387.00 375.00,387.00
             375.00,387.00 375.00,386.00 375.00,386.00 Z
           M 373.00,387.00
           C 373.00,387.00 374.00,387.00 374.00,387.00
             374.00,387.00 373.00,388.00 373.00,388.00
             373.00,388.00 373.00,387.00 373.00,387.00 Z
           M 370.00,389.00
           C 370.00,389.00 366.00,394.00 366.00,394.00
             366.00,394.00 370.00,389.00 370.00,389.00 Z
           M 705.00,389.00
           C 705.00,389.00 706.00,389.00 706.00,389.00
             706.00,389.00 705.00,390.00 705.00,390.00
             705.00,390.00 705.00,389.00 705.00,389.00 Z
           M 733.00,389.00
           C 733.00,389.00 734.00,389.00 734.00,389.00
             734.00,389.00 733.00,390.00 733.00,390.00
             733.00,390.00 733.00,389.00 733.00,389.00 Z
           M 448.00,390.00
           C 448.00,390.00 449.00,390.00 449.00,390.00
             449.00,390.00 448.00,391.00 448.00,391.00
             448.00,391.00 448.00,390.00 448.00,390.00 Z
           M 685.00,390.00
           C 685.00,390.00 686.00,390.00 686.00,390.00
             686.00,390.00 685.00,391.00 685.00,391.00
             685.00,391.00 685.00,390.00 685.00,390.00 Z
           M 430.00,391.00
           C 431.64,395.14 431.64,413.86 430.00,418.00
             430.00,418.00 430.00,391.00 430.00,391.00 Z
           M 731.00,393.00
           C 731.00,393.00 729.00,396.00 729.00,396.00
             729.00,396.00 729.00,395.00 729.00,395.00
             729.00,395.00 731.00,393.00 731.00,393.00 Z
           M 752.00,395.00
           C 752.00,395.00 753.00,395.00 753.00,395.00
             753.00,395.00 752.00,396.00 752.00,396.00
             752.00,396.00 752.00,395.00 752.00,395.00 Z
           M 408.00,396.00
           C 408.00,396.00 409.00,396.00 409.00,396.00
             409.00,396.00 408.00,397.00 408.00,397.00
             408.00,397.00 408.00,396.00 408.00,396.00 Z
           M 711.00,396.00
           C 711.00,396.00 712.00,396.00 712.00,396.00
             712.00,396.00 711.00,397.00 711.00,397.00
             711.00,397.00 711.00,396.00 711.00,396.00 Z
           M 390.00,397.00
           C 390.00,397.00 391.00,397.00 391.00,397.00
             391.00,397.00 390.00,398.00 390.00,398.00
             390.00,398.00 390.00,397.00 390.00,397.00 Z
           M 713.00,397.00
           C 713.00,397.00 714.00,397.00 714.00,397.00
             714.00,397.00 713.00,398.00 713.00,398.00
             713.00,398.00 713.00,397.00 713.00,397.00 Z
           M 726.00,397.00
           C 726.00,397.00 727.00,397.00 727.00,397.00
             727.00,397.00 726.00,398.00 726.00,398.00
             726.00,398.00 726.00,397.00 726.00,397.00 Z
           M 362.00,399.00
           C 362.00,399.00 363.00,399.00 363.00,399.00
             363.00,399.00 362.00,400.00 362.00,400.00
             362.00,400.00 362.00,399.00 362.00,399.00 Z
           M 385.00,399.00
           C 385.00,399.00 382.00,403.00 382.00,403.00
             382.00,403.00 385.00,399.00 385.00,399.00 Z
           M 689.00,399.00
           C 689.00,399.00 690.00,399.00 690.00,399.00
             690.00,399.00 689.00,400.00 689.00,400.00
             689.00,400.00 689.00,399.00 689.00,399.00 Z
           M 750.00,399.00
           C 750.00,399.00 751.00,399.00 751.00,399.00
             751.00,399.00 750.00,400.00 750.00,400.00
             750.00,400.00 750.00,399.00 750.00,399.00 Z
           M 448.00,401.00
           C 448.00,401.00 449.00,401.00 449.00,401.00
             449.00,401.00 448.00,402.00 448.00,402.00
             448.00,402.00 448.00,401.00 448.00,401.00 Z
           M 749.00,401.00
           C 749.00,401.00 750.00,401.00 750.00,401.00
             750.00,401.00 749.00,402.00 749.00,402.00
             749.00,402.00 749.00,401.00 749.00,401.00 Z
           M 361.00,402.00
           C 361.00,402.00 362.00,402.00 362.00,402.00
             362.00,402.00 361.00,403.00 361.00,403.00
             361.00,403.00 361.00,402.00 361.00,402.00 Z
           M 360.00,406.00
           C 360.00,406.00 361.00,406.00 361.00,406.00
             361.00,406.00 360.00,407.00 360.00,407.00
             360.00,407.00 360.00,406.00 360.00,406.00 Z
           M 696.00,406.00
           C 696.00,406.00 699.00,409.00 699.00,409.00
             699.00,409.00 696.00,406.00 696.00,406.00 Z
           M 410.00,409.00
           C 410.00,409.00 411.00,409.00 411.00,409.00
             411.00,409.00 410.00,410.00 410.00,410.00
             410.00,410.00 410.00,409.00 410.00,409.00 Z
           M 449.00,409.00
           C 449.00,409.00 450.00,409.00 450.00,409.00
             450.00,409.00 449.00,410.00 449.00,410.00
             449.00,410.00 449.00,409.00 449.00,409.00 Z
           M 739.00,410.00
           C 739.00,410.00 740.00,410.00 740.00,410.00
             740.00,410.00 739.00,411.00 739.00,411.00
             739.00,411.00 739.00,410.00 739.00,410.00 Z
           M 737.00,411.00
           C 737.00,411.00 738.00,411.00 738.00,411.00
             738.00,411.00 737.00,412.00 737.00,412.00
             737.00,412.00 737.00,411.00 737.00,411.00 Z
           M 409.00,413.00
           C 409.00,413.00 410.00,413.00 410.00,413.00
             410.00,413.00 409.00,414.00 409.00,414.00
             409.00,414.00 409.00,413.00 409.00,413.00 Z
           M 731.00,413.00
           C 731.00,413.00 732.00,413.00 732.00,413.00
             732.00,413.00 731.00,414.00 731.00,414.00
             731.00,414.00 731.00,413.00 731.00,413.00 Z
           M 408.00,415.00
           C 408.00,415.00 409.00,415.00 409.00,415.00
             409.00,415.00 408.00,416.00 408.00,416.00
             408.00,416.00 408.00,415.00 408.00,415.00 Z
           M 476.00,416.00
           C 476.00,416.00 479.00,419.00 479.00,419.00
             479.00,419.00 476.00,416.00 476.00,416.00 Z
           M 708.00,416.00
           C 708.00,416.00 709.00,416.00 709.00,416.00
             709.00,416.00 708.00,417.00 708.00,417.00
             708.00,417.00 708.00,416.00 708.00,416.00 Z
           M 360.00,418.00
           C 360.00,418.00 361.00,418.00 361.00,418.00
             361.00,418.00 360.00,419.00 360.00,419.00
             360.00,419.00 360.00,418.00 360.00,418.00 Z
           M 381.00,418.00
           C 381.00,418.00 382.00,418.00 382.00,418.00
             382.00,418.00 381.00,419.00 381.00,419.00
             381.00,419.00 381.00,418.00 381.00,418.00 Z
           M 406.00,418.00
           C 406.00,418.00 407.00,418.00 407.00,418.00
             407.00,418.00 406.00,419.00 406.00,419.00
             406.00,419.00 406.00,418.00 406.00,418.00 Z
           M 452.00,418.00
           C 452.00,418.00 453.00,418.00 453.00,418.00
             453.00,418.00 452.00,419.00 452.00,419.00
             452.00,419.00 452.00,418.00 452.00,418.00 Z
           M 688.00,418.00
           C 688.00,418.00 689.00,418.00 689.00,418.00
             689.00,418.00 688.00,419.00 688.00,419.00
             688.00,419.00 688.00,418.00 688.00,418.00 Z
           M 503.00,419.00
           C 503.00,419.00 504.00,419.00 504.00,419.00
             504.00,419.00 503.00,420.00 503.00,420.00
             503.00,420.00 503.00,419.00 503.00,419.00 Z
           M 383.00,420.00
           C 383.00,420.00 384.00,420.00 384.00,420.00
             384.00,420.00 383.00,421.00 383.00,421.00
             383.00,421.00 383.00,420.00 383.00,420.00 Z
           M 453.00,420.00
           C 453.00,420.00 454.00,420.00 454.00,420.00
             454.00,420.00 453.00,421.00 453.00,421.00
             453.00,421.00 453.00,420.00 453.00,420.00 Z
           M 483.00,420.00
           C 483.00,420.00 484.00,420.00 484.00,420.00
             484.00,420.00 483.00,421.00 483.00,421.00
             483.00,421.00 483.00,420.00 483.00,420.00 Z
           M 500.00,420.00
           C 500.00,420.00 501.00,420.00 501.00,420.00
             501.00,420.00 500.00,421.00 500.00,421.00
             500.00,421.00 500.00,420.00 500.00,420.00 Z
           M 401.00,421.00
           C 401.00,421.00 402.00,421.00 402.00,421.00
             402.00,421.00 401.00,422.00 401.00,422.00
             401.00,422.00 401.00,421.00 401.00,421.00 Z
           M 487.00,421.00
           C 487.00,421.00 488.00,421.00 488.00,421.00
             488.00,421.00 487.00,422.00 487.00,422.00
             487.00,422.00 487.00,421.00 487.00,421.00 Z
           M 361.00,422.00
           C 361.00,422.00 362.00,422.00 362.00,422.00
             362.00,422.00 361.00,423.00 361.00,423.00
             361.00,423.00 361.00,422.00 361.00,422.00 Z
           M 431.00,422.00
           C 431.00,422.00 432.00,422.00 432.00,422.00
             432.00,422.00 431.00,423.00 431.00,423.00
             431.00,423.00 431.00,422.00 431.00,422.00 Z
           M 455.00,423.00
           C 455.00,423.00 456.00,423.00 456.00,423.00
             456.00,423.00 455.00,424.00 455.00,424.00
             455.00,424.00 455.00,423.00 455.00,423.00 Z
           M 748.00,423.00
           C 748.00,423.00 749.00,423.00 749.00,423.00
             749.00,423.00 748.00,424.00 748.00,424.00
             748.00,424.00 748.00,423.00 748.00,423.00 Z
           M 362.00,424.00
           C 362.00,424.00 363.00,424.00 363.00,424.00
             363.00,424.00 362.00,425.00 362.00,425.00
             362.00,425.00 362.00,424.00 362.00,424.00 Z
           M 363.00,426.00
           C 363.00,426.00 364.00,426.00 364.00,426.00
             364.00,426.00 363.00,427.00 363.00,427.00
             363.00,427.00 363.00,426.00 363.00,426.00 Z
           M 457.00,426.00
           C 457.00,426.00 462.00,431.00 462.00,431.00
             462.00,431.00 457.00,426.00 457.00,426.00 Z
           M 688.00,428.00
           C 688.00,428.00 689.00,428.00 689.00,428.00
             689.00,428.00 688.00,429.00 688.00,429.00
             688.00,429.00 688.00,428.00 688.00,428.00 Z
           M 411.00,429.00
           C 411.00,429.00 412.00,429.00 412.00,429.00
             412.00,429.00 411.00,430.00 411.00,430.00
             411.00,430.00 411.00,429.00 411.00,429.00 Z
           M 413.00,430.00
           C 413.00,430.00 414.00,430.00 414.00,430.00
             414.00,430.00 413.00,431.00 413.00,431.00
             413.00,431.00 413.00,430.00 413.00,430.00 Z
           M 689.00,430.00
           C 689.00,430.00 690.00,430.00 690.00,430.00
             690.00,430.00 689.00,431.00 689.00,431.00
             689.00,431.00 689.00,430.00 689.00,430.00 Z
           M 464.00,432.00
           C 464.00,432.00 465.00,432.00 465.00,432.00
             465.00,432.00 464.00,433.00 464.00,433.00
             464.00,433.00 464.00,432.00 464.00,432.00 Z
           M 757.00,432.00
           C 757.00,432.00 758.00,432.00 758.00,432.00
             758.00,432.00 757.00,433.00 757.00,433.00
             757.00,433.00 757.00,432.00 757.00,432.00 Z
           M 415.00,433.00
           C 415.00,433.00 419.00,437.00 419.00,437.00
             419.00,437.00 415.00,433.00 415.00,433.00 Z
           M 436.00,433.00
           C 436.00,433.00 437.00,433.00 437.00,433.00
             437.00,433.00 436.00,434.00 436.00,434.00
             436.00,434.00 436.00,433.00 436.00,433.00 Z
           M 504.00,433.00
           C 504.00,433.00 505.00,433.00 505.00,433.00
             505.00,433.00 504.00,434.00 504.00,434.00
             504.00,434.00 504.00,433.00 504.00,433.00 Z
           M 371.00,434.00
           C 371.00,434.00 372.00,434.00 372.00,434.00
             372.00,434.00 371.00,435.00 371.00,435.00
             371.00,435.00 371.00,434.00 371.00,434.00 Z
           M 405.00,434.00
           C 405.00,434.00 406.00,434.00 406.00,434.00
             406.00,434.00 405.00,435.00 405.00,435.00
             405.00,435.00 405.00,434.00 405.00,434.00 Z
           M 467.00,434.00
           C 467.00,434.00 468.00,434.00 468.00,434.00
             468.00,434.00 467.00,435.00 467.00,435.00
             467.00,435.00 467.00,434.00 467.00,434.00 Z
           M 502.00,434.00
           C 502.00,434.00 503.00,434.00 503.00,434.00
             503.00,434.00 502.00,435.00 502.00,435.00
             502.00,435.00 502.00,434.00 502.00,434.00 Z
           M 694.00,434.00
           C 694.00,434.00 695.00,434.00 695.00,434.00
             695.00,434.00 694.00,435.00 694.00,435.00
             694.00,435.00 694.00,434.00 694.00,434.00 Z
           M 373.00,435.00
           C 373.00,435.00 374.00,435.00 374.00,435.00
             374.00,435.00 373.00,436.00 373.00,436.00
             373.00,436.00 373.00,435.00 373.00,435.00 Z
           M 403.00,435.00
           C 403.00,435.00 404.00,435.00 404.00,435.00
             404.00,435.00 403.00,436.00 403.00,436.00
             403.00,436.00 403.00,435.00 403.00,435.00 Z
           M 758.00,435.00
           C 758.00,435.00 759.00,435.00 759.00,435.00
             759.00,435.00 758.00,436.00 758.00,436.00
             758.00,436.00 758.00,435.00 758.00,435.00 Z
           M 376.00,436.00
           C 376.00,436.00 377.00,436.00 377.00,436.00
             377.00,436.00 376.00,437.00 376.00,437.00
             376.00,437.00 376.00,436.00 376.00,436.00 Z
           M 400.00,436.00
           C 400.00,436.00 401.00,436.00 401.00,436.00
             401.00,436.00 400.00,437.00 400.00,437.00
             400.00,437.00 400.00,436.00 400.00,436.00 Z
           M 472.00,436.00
           C 472.00,436.00 473.00,436.00 473.00,436.00
             473.00,436.00 472.00,437.00 472.00,437.00
             472.00,437.00 472.00,436.00 472.00,436.00 Z
           M 498.00,436.00
           C 498.00,436.00 499.00,436.00 499.00,436.00
             499.00,436.00 498.00,437.00 498.00,437.00
             498.00,437.00 498.00,436.00 498.00,436.00 Z
           M 699.00,436.00
           C 699.00,436.00 700.00,436.00 700.00,436.00
             700.00,436.00 699.00,437.00 699.00,437.00
             699.00,437.00 699.00,436.00 699.00,436.00 Z
           M 397.00,437.00
           C 397.00,437.00 398.00,437.00 398.00,437.00
             398.00,437.00 397.00,438.00 397.00,438.00
             397.00,438.00 397.00,437.00 397.00,437.00 Z
           M 420.00,437.00
           C 420.00,437.00 421.00,437.00 421.00,437.00
             421.00,437.00 420.00,438.00 420.00,438.00
             420.00,438.00 420.00,437.00 420.00,437.00 Z
           M 431.00,437.00
           C 431.00,437.00 432.00,437.00 432.00,437.00
             432.00,437.00 431.00,438.00 431.00,438.00
             431.00,438.00 431.00,437.00 431.00,437.00 Z
           M 494.00,437.00
           C 494.00,437.00 495.00,437.00 495.00,437.00
             495.00,437.00 494.00,438.00 494.00,438.00
             494.00,438.00 494.00,437.00 494.00,437.00 Z
           M 736.00,437.00
           C 736.00,437.00 737.00,437.00 737.00,437.00
             737.00,437.00 736.00,438.00 736.00,438.00
             736.00,438.00 736.00,437.00 736.00,437.00 Z
           M 388.00,438.00
           C 388.00,438.00 389.00,438.00 389.00,438.00
             389.00,438.00 388.00,439.00 388.00,439.00
             388.00,439.00 388.00,438.00 388.00,438.00 Z
           M 426.00,438.00
           C 426.00,438.00 427.00,438.00 427.00,438.00
             427.00,438.00 426.00,439.00 426.00,439.00
             426.00,439.00 426.00,438.00 426.00,438.00 Z
           M 487.00,438.00
           C 487.00,438.00 488.00,438.00 488.00,438.00
             488.00,438.00 487.00,439.00 487.00,439.00
             487.00,439.00 487.00,438.00 487.00,438.00 Z
           M 739.00,440.00
           C 739.00,440.00 740.00,440.00 740.00,440.00
             740.00,440.00 739.00,441.00 739.00,441.00
             739.00,441.00 739.00,440.00 739.00,440.00 Z
           M 696.00,444.00
           C 696.00,444.00 697.00,444.00 697.00,444.00
             697.00,444.00 696.00,445.00 696.00,445.00
             696.00,445.00 696.00,444.00 696.00,444.00 Z
           M 739.00,446.00
           C 739.00,446.00 736.00,450.00 736.00,450.00
             736.00,450.00 739.00,446.00 739.00,446.00 Z
           M 703.00,448.00
           C 703.00,448.00 704.00,448.00 704.00,448.00
             704.00,448.00 703.00,449.00 703.00,449.00
             703.00,449.00 703.00,448.00 703.00,448.00 Z
           M 705.00,449.00
           C 705.00,449.00 706.00,449.00 706.00,449.00
             706.00,449.00 705.00,450.00 705.00,450.00
             705.00,450.00 705.00,449.00 705.00,449.00 Z
           M 758.00,449.00
           C 758.00,449.00 759.00,449.00 759.00,449.00
             759.00,449.00 758.00,450.00 758.00,450.00
             758.00,450.00 758.00,449.00 758.00,449.00 Z
           M 707.00,450.00
           C 707.00,450.00 708.00,450.00 708.00,450.00
             708.00,450.00 707.00,451.00 707.00,451.00
             707.00,451.00 707.00,450.00 707.00,450.00 Z
           M 734.00,450.00
           C 734.00,450.00 735.00,450.00 735.00,450.00
             735.00,450.00 734.00,451.00 734.00,451.00
             734.00,451.00 734.00,450.00 734.00,450.00 Z
           M 710.00,451.00
           C 710.00,451.00 711.00,451.00 711.00,451.00
             711.00,451.00 710.00,452.00 710.00,452.00
             710.00,452.00 710.00,451.00 710.00,451.00 Z
           M 732.00,451.00
           C 732.00,451.00 733.00,451.00 733.00,451.00
             733.00,451.00 732.00,452.00 732.00,452.00
             732.00,452.00 732.00,451.00 732.00,451.00 Z
           M 714.00,452.00
           C 714.00,452.00 715.00,452.00 715.00,452.00
             715.00,452.00 714.00,453.00 714.00,453.00
             714.00,453.00 714.00,452.00 714.00,452.00 Z
           M 727.00,452.00
           C 727.00,452.00 728.00,452.00 728.00,452.00
             728.00,452.00 727.00,453.00 727.00,453.00
             727.00,453.00 727.00,452.00 727.00,452.00 Z
           M 689.00,453.00
           C 689.00,453.00 690.00,453.00 690.00,453.00
             690.00,453.00 689.00,454.00 689.00,454.00
             689.00,454.00 689.00,453.00 689.00,453.00 Z
           M 687.00,455.00
           C 687.00,455.00 688.00,455.00 688.00,455.00
             688.00,455.00 687.00,456.00 687.00,456.00
             687.00,456.00 687.00,455.00 687.00,455.00 Z
           M 755.00,455.00
           C 755.00,455.00 756.00,455.00 756.00,455.00
             756.00,455.00 755.00,456.00 755.00,456.00
             755.00,456.00 755.00,455.00 755.00,455.00 Z
           M 753.00,458.00
           C 753.00,458.00 754.00,458.00 754.00,458.00
             754.00,458.00 753.00,459.00 753.00,459.00
             753.00,459.00 753.00,458.00 753.00,458.00 Z
           M 751.00,460.00
           C 751.00,460.00 752.00,460.00 752.00,460.00
             752.00,460.00 751.00,461.00 751.00,461.00
             751.00,461.00 751.00,460.00 751.00,460.00 Z
           M 690.00,462.00
           C 690.00,462.00 691.00,462.00 691.00,462.00
             691.00,462.00 690.00,463.00 690.00,463.00
             690.00,463.00 690.00,462.00 690.00,462.00 Z
           M 748.00,462.00
           C 748.00,462.00 749.00,462.00 749.00,462.00
             749.00,462.00 748.00,463.00 748.00,463.00
             748.00,463.00 748.00,462.00 748.00,462.00 Z
           M 696.00,465.00
           C 696.00,465.00 697.00,465.00 697.00,465.00
             697.00,465.00 696.00,466.00 696.00,466.00
             696.00,466.00 696.00,465.00 696.00,465.00 Z
           M 698.00,466.00
           C 698.00,466.00 699.00,466.00 699.00,466.00
             699.00,466.00 698.00,467.00 698.00,467.00
             698.00,467.00 698.00,466.00 698.00,466.00 Z
           M 701.00,467.00
           C 701.00,467.00 702.00,467.00 702.00,467.00
             702.00,467.00 701.00,468.00 701.00,468.00
             701.00,468.00 701.00,467.00 701.00,467.00 Z
           M 738.00,467.00
           C 738.00,467.00 739.00,467.00 739.00,467.00
             739.00,467.00 738.00,468.00 738.00,468.00
             738.00,468.00 738.00,467.00 738.00,467.00 Z
           M 735.00,468.00
           C 735.00,468.00 736.00,468.00 736.00,468.00
             736.00,468.00 735.00,469.00 735.00,469.00
             735.00,469.00 735.00,468.00 735.00,468.00 Z
           M 710.00,469.00
           C 710.00,469.00 711.00,469.00 711.00,469.00
             711.00,469.00 710.00,470.00 710.00,470.00
             710.00,470.00 710.00,469.00 710.00,469.00 Z
           M 729.00,469.00
           C 729.00,469.00 730.00,469.00 730.00,469.00
             730.00,469.00 729.00,470.00 729.00,470.00
             729.00,470.00 729.00,469.00 729.00,469.00 Z
           M 365.00,482.00
           C 365.00,482.00 372.00,482.00 372.00,482.00
             372.00,482.00 365.00,482.00 365.00,482.00 Z
           M 375.00,481.00
           C 375.00,481.00 382.00,483.00 382.00,483.00
             382.00,483.00 375.00,481.00 375.00,481.00 Z
           M 446.00,481.00
           C 446.00,481.00 447.00,482.00 447.00,482.00
             447.00,482.00 439.00,483.00 439.00,483.00
             439.00,483.00 446.00,481.00 446.00,481.00 Z
           M 451.00,481.00
           C 451.00,481.00 459.00,483.00 459.00,483.00
             459.00,483.00 451.00,481.00 451.00,481.00 Z
           M 500.00,481.00
           C 500.00,481.00 501.00,482.00 501.00,482.00
             501.00,482.00 493.00,483.00 493.00,483.00
             493.00,483.00 500.00,481.00 500.00,481.00 Z
           M 504.00,481.00
           C 504.00,481.00 513.00,484.00 513.00,484.00
             513.00,484.00 504.00,481.00 504.00,481.00 Z
           M 554.00,481.00
           C 554.00,481.00 561.00,483.00 561.00,483.00
             561.00,483.00 554.00,481.00 554.00,481.00 Z
           M 402.00,531.00
           C 402.00,531.00 402.00,490.00 402.00,490.00
             402.05,482.09 405.34,479.96 413.00,483.00
             413.00,483.00 403.00,483.00 403.00,483.00
             403.00,483.00 403.00,530.00 403.00,530.00
             403.00,530.00 413.00,531.00 413.00,531.00
             413.00,531.00 402.00,531.00 402.00,531.00 Z
           M 543.00,483.00
           C 543.00,483.00 551.00,483.00 551.00,483.00
             551.00,483.00 543.00,483.00 543.00,483.00 Z
           M 363.00,483.00
           C 363.00,483.00 364.00,483.00 364.00,483.00
             364.00,483.00 363.00,484.00 363.00,484.00
             363.00,484.00 363.00,483.00 363.00,483.00 Z
           M 383.00,483.00
           C 384.41,486.56 385.05,492.26 382.00,495.00
             382.00,495.00 383.00,483.00 383.00,483.00 Z
           M 562.00,483.00
           C 562.00,483.00 563.00,483.00 563.00,483.00
             563.00,483.00 562.00,484.00 562.00,484.00
             562.00,484.00 562.00,483.00 562.00,483.00 Z
           M 437.00,484.00
           C 437.00,484.00 435.00,487.00 435.00,487.00
             435.00,487.00 435.00,486.00 435.00,486.00
             435.00,486.00 437.00,484.00 437.00,484.00 Z
           M 490.00,484.00
           C 490.00,484.00 491.00,484.00 491.00,484.00
             491.00,484.00 490.00,485.00 490.00,485.00
             490.00,485.00 490.00,484.00 490.00,484.00 Z
           M 541.00,484.00
           C 541.00,484.00 542.00,484.00 542.00,484.00
             542.00,484.00 541.00,485.00 541.00,485.00
             541.00,485.00 541.00,484.00 541.00,484.00 Z
           M 564.00,484.00
           C 564.00,484.00 565.00,484.00 565.00,484.00
             565.00,484.00 564.00,485.00 564.00,485.00
             564.00,485.00 564.00,484.00 564.00,484.00 Z
           M 359.00,485.00
           C 359.00,485.00 360.00,485.00 360.00,485.00
             360.00,485.00 359.00,486.00 359.00,486.00
             359.00,486.00 359.00,485.00 359.00,485.00 Z
           M 488.00,485.00
           C 488.00,485.00 489.00,485.00 489.00,485.00
             489.00,485.00 488.00,486.00 488.00,486.00
             488.00,486.00 488.00,485.00 488.00,485.00 Z
           M 539.00,485.00
           C 539.00,485.00 540.00,485.00 540.00,485.00
             540.00,485.00 539.00,486.00 539.00,486.00
             539.00,486.00 539.00,485.00 539.00,485.00 Z
           M 566.00,485.00
           C 566.00,485.00 567.00,485.00 567.00,485.00
             567.00,485.00 566.00,486.00 566.00,486.00
             566.00,486.00 566.00,485.00 566.00,485.00 Z
           M 357.00,486.00
           C 357.00,486.00 358.00,486.00 358.00,486.00
             358.00,486.00 357.00,487.00 357.00,487.00
             357.00,487.00 357.00,486.00 357.00,486.00 Z
           M 537.00,486.00
           C 537.00,486.00 532.00,492.00 532.00,492.00
             532.00,492.00 537.00,486.00 537.00,486.00 Z
           M 568.00,486.00
           C 568.00,486.00 574.00,492.00 574.00,492.00
             574.00,492.00 568.00,486.00 568.00,486.00 Z
           M 485.00,487.00
           C 485.00,487.00 483.00,490.00 483.00,490.00
             483.00,490.00 483.00,489.00 483.00,489.00
             483.00,489.00 485.00,487.00 485.00,487.00 Z
           M 355.00,488.00
           C 355.00,488.00 351.00,493.00 351.00,493.00
             351.00,493.00 355.00,488.00 355.00,488.00 Z
           M 433.00,488.00
           C 433.00,488.00 434.00,488.00 434.00,488.00
             434.00,488.00 433.00,489.00 433.00,489.00
             433.00,489.00 433.00,488.00 433.00,488.00 Z
           M 432.00,490.00
           C 432.00,490.00 433.00,490.00 433.00,490.00
             433.00,490.00 432.00,491.00 432.00,491.00
             432.00,491.00 432.00,490.00 432.00,490.00 Z
           M 445.00,492.00
           C 445.00,492.00 449.00,492.00 449.00,492.00
             449.00,492.00 445.00,492.00 445.00,492.00 Z
           M 454.00,491.00
           C 454.00,491.00 460.00,493.00 460.00,493.00
             460.00,493.00 454.00,491.00 454.00,491.00 Z
           M 481.00,492.00
           C 481.00,492.00 478.00,498.00 478.00,498.00
             478.00,498.00 481.00,492.00 481.00,492.00 Z
           M 370.00,493.00
           C 370.00,493.00 371.00,493.00 371.00,493.00
             371.00,493.00 370.00,494.00 370.00,494.00
             370.00,494.00 370.00,493.00 370.00,493.00 Z
           M 378.00,493.00
           C 378.00,493.00 379.00,493.00 379.00,493.00
             379.00,493.00 378.00,494.00 378.00,494.00
             378.00,494.00 378.00,493.00 378.00,493.00 Z
           M 443.00,493.00
           C 443.00,493.00 444.00,493.00 444.00,493.00
             444.00,493.00 443.00,494.00 443.00,494.00
             443.00,494.00 443.00,493.00 443.00,493.00 Z
           M 499.00,493.00
           C 499.00,493.00 500.00,493.00 500.00,493.00
             500.00,493.00 499.00,494.00 499.00,494.00
             499.00,494.00 499.00,493.00 499.00,493.00 Z
           M 531.00,493.00
           C 531.00,493.00 532.00,493.00 532.00,493.00
             532.00,493.00 531.00,494.00 531.00,494.00
             531.00,494.00 531.00,493.00 531.00,493.00 Z
           M 550.00,493.00
           C 550.00,493.00 551.00,493.00 551.00,493.00
             551.00,493.00 550.00,494.00 550.00,494.00
             550.00,494.00 550.00,493.00 550.00,493.00 Z
           M 555.00,493.00
           C 555.00,493.00 556.00,493.00 556.00,493.00
             556.00,493.00 555.00,494.00 555.00,494.00
             555.00,494.00 555.00,493.00 555.00,493.00 Z
           M 574.00,493.00
           C 574.00,493.00 575.00,493.00 575.00,493.00
             575.00,493.00 574.00,494.00 574.00,494.00
             574.00,494.00 574.00,493.00 574.00,493.00 Z
           M 350.00,494.00
           C 350.00,494.00 351.00,494.00 351.00,494.00
             351.00,494.00 350.00,495.00 350.00,495.00
             350.00,495.00 350.00,494.00 350.00,494.00 Z
           M 496.00,494.00
           C 496.00,494.00 497.00,494.00 497.00,494.00
             497.00,494.00 496.00,495.00 496.00,495.00
             496.00,495.00 496.00,494.00 496.00,494.00 Z
           M 511.00,494.00
           C 511.00,494.00 512.00,494.00 512.00,494.00
             512.00,494.00 511.00,495.00 511.00,495.00
             511.00,495.00 511.00,494.00 511.00,494.00 Z
           M 546.00,494.00
           C 546.00,494.00 541.00,500.00 541.00,500.00
             541.00,500.00 546.00,494.00 546.00,494.00 Z
           M 559.00,494.00
           C 559.00,494.00 560.00,494.00 560.00,494.00
             560.00,494.00 559.00,495.00 559.00,495.00
             559.00,495.00 559.00,494.00 559.00,494.00 Z
           M 295.00,495.00
           C 295.00,495.00 300.00,496.00 300.00,496.00
             300.00,496.00 295.00,495.00 295.00,495.00 Z
           M 494.00,495.00
           C 494.00,495.00 492.00,498.00 492.00,498.00
             492.00,498.00 492.00,497.00 492.00,497.00
             492.00,497.00 494.00,495.00 494.00,495.00 Z
           M 530.00,495.00
           C 530.00,495.00 531.00,495.00 531.00,495.00
             531.00,495.00 530.00,496.00 530.00,496.00
             530.00,496.00 530.00,495.00 530.00,495.00 Z
           M 575.00,495.00
           C 575.00,495.00 576.00,495.00 576.00,495.00
             576.00,495.00 575.00,496.00 575.00,496.00
             575.00,496.00 575.00,495.00 575.00,495.00 Z
           M 629.00,495.00
           C 629.00,495.00 634.00,496.00 634.00,496.00
             634.00,496.00 629.00,495.00 629.00,495.00 Z
           M 669.00,495.00
           C 669.00,495.00 674.00,496.00 674.00,496.00
             674.00,496.00 669.00,495.00 669.00,495.00 Z
           M 711.00,495.00
           C 711.00,495.00 716.00,496.00 716.00,496.00
             716.00,496.00 711.00,495.00 711.00,495.00 Z
           M 733.00,495.00
           C 733.00,495.00 738.00,496.00 738.00,496.00
             738.00,496.00 733.00,495.00 733.00,495.00 Z
           M 774.00,495.00
           C 774.00,495.00 779.00,496.00 779.00,496.00
             779.00,496.00 774.00,495.00 774.00,495.00 Z
           M 812.00,495.00
           C 812.00,495.00 817.00,496.00 817.00,496.00
             817.00,496.00 812.00,495.00 812.00,495.00 Z
           M 290.00,496.00
           C 290.00,496.00 291.00,496.00 291.00,496.00
             291.00,496.00 290.00,497.00 290.00,497.00
             290.00,497.00 290.00,496.00 290.00,496.00 Z
           M 304.00,496.00
           C 304.00,496.00 305.00,496.00 305.00,496.00
             305.00,496.00 304.00,497.00 304.00,497.00
             304.00,497.00 304.00,496.00 304.00,496.00 Z
           M 349.00,496.00
           C 349.00,496.00 350.00,496.00 350.00,496.00
             350.00,496.00 349.00,497.00 349.00,497.00
             349.00,497.00 349.00,496.00 349.00,496.00 Z
           M 625.00,496.00
           C 625.00,496.00 626.00,496.00 626.00,496.00
             626.00,496.00 625.00,497.00 625.00,497.00
             625.00,497.00 625.00,496.00 625.00,496.00 Z
           M 638.00,496.00
           C 638.00,496.00 639.00,496.00 639.00,496.00
             639.00,496.00 638.00,497.00 638.00,497.00
             638.00,497.00 638.00,496.00 638.00,496.00 Z
           M 664.00,496.00
           C 664.00,496.00 665.00,496.00 665.00,496.00
             665.00,496.00 664.00,497.00 664.00,497.00
             664.00,497.00 664.00,496.00 664.00,496.00 Z
           M 678.00,496.00
           C 678.00,496.00 679.00,496.00 679.00,496.00
             679.00,496.00 678.00,497.00 678.00,497.00
             678.00,497.00 678.00,496.00 678.00,496.00 Z
           M 708.00,496.00
           C 708.00,496.00 709.00,496.00 709.00,496.00
             709.00,496.00 708.00,497.00 708.00,497.00
             708.00,497.00 708.00,496.00 708.00,496.00 Z
           M 719.00,496.00
           C 719.00,496.00 720.00,496.00 720.00,496.00
             720.00,496.00 719.00,497.00 719.00,497.00
             719.00,497.00 719.00,496.00 719.00,496.00 Z
           M 729.00,496.00
           C 729.00,496.00 730.00,496.00 730.00,496.00
             730.00,496.00 729.00,497.00 729.00,497.00
             729.00,497.00 729.00,496.00 729.00,496.00 Z
           M 741.00,496.00
           C 741.00,496.00 742.00,496.00 742.00,496.00
             742.00,496.00 741.00,497.00 741.00,497.00
             741.00,497.00 741.00,496.00 741.00,496.00 Z
           M 770.00,496.00
           C 770.00,496.00 771.00,496.00 771.00,496.00
             771.00,496.00 770.00,497.00 770.00,497.00
             770.00,497.00 770.00,496.00 770.00,496.00 Z
           M 782.00,496.00
           C 782.00,496.00 783.00,496.00 783.00,496.00
             783.00,496.00 782.00,497.00 782.00,497.00
             782.00,497.00 782.00,496.00 782.00,496.00 Z
           M 807.00,496.00
           C 807.00,496.00 808.00,496.00 808.00,496.00
             808.00,496.00 807.00,497.00 807.00,497.00
             807.00,497.00 807.00,496.00 807.00,496.00 Z
           M 821.00,496.00
           C 821.00,496.00 822.00,496.00 822.00,496.00
             822.00,496.00 821.00,497.00 821.00,497.00
             821.00,497.00 821.00,496.00 821.00,496.00 Z
           M 839.00,496.00
           C 839.00,496.00 840.00,508.00 840.00,508.00
             840.00,508.00 840.00,530.00 840.00,530.00
             840.00,530.00 845.00,531.00 845.00,531.00
             845.00,531.00 839.00,531.00 839.00,531.00
             839.00,531.00 839.00,496.00 839.00,496.00 Z
           M 850.00,496.00
           C 850.00,496.00 851.00,496.00 851.00,496.00
             851.00,496.00 850.00,497.00 850.00,497.00
             850.00,497.00 850.00,496.00 850.00,496.00 Z
           M 875.00,496.00
           C 875.00,496.00 876.00,496.00 876.00,496.00
             876.00,496.00 875.00,497.00 875.00,497.00
             875.00,497.00 875.00,496.00 875.00,496.00 Z
           M 902.00,496.00
           C 902.00,496.00 903.00,496.00 903.00,496.00
             903.00,496.00 902.00,497.00 902.00,497.00
             902.00,497.00 902.00,496.00 902.00,496.00 Z
           M 306.00,497.00
           C 306.00,497.00 307.00,497.00 307.00,497.00
             307.00,497.00 306.00,498.00 306.00,498.00
             306.00,498.00 306.00,497.00 306.00,497.00 Z
           M 363.00,497.00
           C 363.00,497.00 360.00,502.00 360.00,502.00
             360.00,502.00 363.00,497.00 363.00,497.00 Z
           M 443.00,497.00
           C 443.00,497.00 444.00,497.00 444.00,497.00
             444.00,497.00 443.00,498.00 443.00,498.00
             443.00,498.00 443.00,497.00 443.00,497.00 Z
           M 562.00,497.00
           C 562.00,497.00 563.00,497.00 563.00,497.00
             563.00,497.00 562.00,498.00 562.00,498.00
             562.00,498.00 562.00,497.00 562.00,497.00 Z
           M 576.00,497.00
           C 578.02,499.64 578.43,500.67 578.00,504.00
             578.00,504.00 576.00,497.00 576.00,497.00 Z
           M 622.00,497.00
           C 622.00,497.00 620.00,500.00 620.00,500.00
             620.00,500.00 620.00,499.00 620.00,499.00
             620.00,499.00 622.00,497.00 622.00,497.00 Z
           M 640.00,497.00
           C 640.00,497.00 641.00,497.00 641.00,497.00
             641.00,497.00 640.00,498.00 640.00,498.00
             640.00,498.00 640.00,497.00 640.00,497.00 Z
           M 662.00,497.00
           C 662.00,497.00 663.00,497.00 663.00,497.00
             663.00,497.00 662.00,498.00 662.00,498.00
             662.00,498.00 662.00,497.00 662.00,497.00 Z
           M 680.00,497.00
           C 680.00,497.00 683.00,500.00 683.00,500.00
             683.00,500.00 680.00,497.00 680.00,497.00 Z
           M 706.00,497.00
           C 706.00,497.00 707.00,497.00 707.00,497.00
             707.00,497.00 706.00,498.00 706.00,498.00
             706.00,498.00 706.00,497.00 706.00,497.00 Z
           M 727.00,497.00
           C 726.26,499.58 725.67,500.00 723.00,500.00
             723.00,500.00 727.00,497.00 727.00,497.00 Z
           M 768.00,497.00
           C 767.07,500.12 765.76,500.45 763.00,499.00
             763.00,499.00 768.00,497.00 768.00,497.00 Z
           M 823.00,497.00
           C 823.00,497.00 824.00,497.00 824.00,497.00
             824.00,497.00 823.00,498.00 823.00,498.00
             823.00,498.00 823.00,497.00 823.00,497.00 Z
           M 848.00,497.00
           C 848.00,497.00 846.00,500.00 846.00,500.00
             846.00,500.00 846.00,499.00 846.00,499.00
             846.00,499.00 848.00,497.00 848.00,497.00 Z
           M 863.00,497.00
           C 863.00,497.00 867.00,501.00 867.00,501.00
             867.00,501.00 863.00,497.00 863.00,497.00 Z
           M 881.00,497.00
           C 881.00,497.00 882.00,497.00 882.00,497.00
             882.00,497.00 881.00,498.00 881.00,498.00
             881.00,498.00 881.00,497.00 881.00,497.00 Z
           M 286.00,498.00
           C 286.00,498.00 284.00,501.00 284.00,501.00
             284.00,501.00 284.00,500.00 284.00,500.00
             284.00,500.00 286.00,498.00 286.00,498.00 Z
           M 660.00,498.00
           C 660.00,498.00 658.00,501.00 658.00,501.00
             658.00,501.00 658.00,500.00 658.00,500.00
             658.00,500.00 660.00,498.00 660.00,498.00 Z
           M 803.00,498.00
           C 803.00,498.00 804.00,498.00 804.00,498.00
             804.00,498.00 803.00,499.00 803.00,499.00
             803.00,499.00 803.00,498.00 803.00,498.00 Z
           M 295.00,499.00
           C 295.00,499.00 296.00,499.00 296.00,499.00
             296.00,499.00 295.00,500.00 295.00,500.00
             295.00,500.00 295.00,499.00 295.00,499.00 Z
           M 564.00,499.00
           C 564.00,499.00 565.00,499.00 565.00,499.00
             565.00,499.00 564.00,500.00 564.00,500.00
             564.00,500.00 564.00,499.00 564.00,499.00 Z
           M 642.00,499.00
           C 642.00,499.00 645.00,502.00 645.00,502.00
             645.00,502.00 642.00,499.00 642.00,499.00 Z
           M 786.00,499.00
           C 786.00,499.00 790.00,503.00 790.00,503.00
             790.00,503.00 786.00,499.00 786.00,499.00 Z
           M 812.00,499.00
           C 812.00,499.00 813.00,499.00 813.00,499.00
             813.00,499.00 812.00,500.00 812.00,500.00
             812.00,500.00 812.00,499.00 812.00,499.00 Z
           M 815.00,499.00
           C 815.00,499.00 816.00,499.00 816.00,499.00
             816.00,499.00 815.00,500.00 815.00,500.00
             815.00,500.00 815.00,499.00 815.00,499.00 Z
           M 825.00,499.00
           C 825.00,499.00 827.00,503.00 827.00,503.00
             827.00,503.00 825.00,499.00 825.00,499.00 Z
           M 876.00,499.00
           C 876.00,499.00 877.00,499.00 877.00,499.00
             877.00,499.00 876.00,500.00 876.00,500.00
             876.00,500.00 876.00,499.00 876.00,499.00 Z
           M 882.00,499.00
           C 882.00,499.00 883.00,503.00 883.00,503.00
             883.00,503.00 882.00,499.00 882.00,499.00 Z
           M 901.00,499.00
           C 901.53,502.15 901.02,502.62 899.00,505.00
             899.00,505.00 901.00,499.00 901.00,499.00 Z
           M 291.00,500.00
           C 291.00,500.00 288.00,505.00 288.00,505.00
             288.00,505.00 291.00,500.00 291.00,500.00 Z
           M 302.00,500.00
           C 302.00,500.00 303.00,500.00 303.00,500.00
             303.00,500.00 302.00,501.00 302.00,501.00
             302.00,501.00 302.00,500.00 302.00,500.00 Z
           M 627.00,500.00
           C 627.00,500.00 628.00,500.00 628.00,500.00
             628.00,500.00 627.00,501.00 627.00,501.00
             627.00,501.00 627.00,500.00 627.00,500.00 Z
           M 635.00,500.00
           C 635.00,500.00 639.00,503.00 639.00,503.00
             639.00,503.00 635.00,500.00 635.00,500.00 Z
           M 666.00,500.00
           C 666.00,500.00 667.00,500.00 667.00,500.00
             667.00,500.00 666.00,501.00 666.00,501.00
             666.00,501.00 666.00,500.00 666.00,500.00 Z
           M 676.00,500.00
           C 676.00,500.00 681.00,505.00 681.00,505.00
             681.00,505.00 676.00,500.00 676.00,500.00 Z
           M 708.00,500.00
           C 708.00,500.00 709.00,500.00 709.00,500.00
             709.00,500.00 708.00,501.00 708.00,501.00
             708.00,501.00 708.00,500.00 708.00,500.00 Z
           M 716.00,500.00
           C 716.00,500.00 719.00,503.00 719.00,503.00
             719.00,503.00 716.00,500.00 716.00,500.00 Z
           M 730.00,500.00
           C 730.00,500.00 731.00,500.00 731.00,500.00
             731.00,500.00 730.00,501.00 730.00,501.00
             730.00,501.00 730.00,500.00 730.00,500.00 Z
           M 738.00,500.00
           C 738.00,500.00 741.00,505.00 741.00,505.00
             741.00,505.00 738.00,500.00 738.00,500.00 Z
           M 770.00,500.00
           C 770.00,500.00 771.00,500.00 771.00,500.00
             771.00,500.00 770.00,501.00 770.00,501.00
             770.00,501.00 770.00,500.00 770.00,500.00 Z
           M 779.00,500.00
           C 779.00,500.00 780.00,500.00 780.00,500.00
             780.00,500.00 779.00,501.00 779.00,501.00
             779.00,501.00 779.00,500.00 779.00,500.00 Z
           M 802.00,500.00
           C 802.00,500.00 800.00,504.00 800.00,504.00
             800.00,504.00 802.00,500.00 802.00,500.00 Z
           M 819.00,500.00
           C 819.00,500.00 820.00,500.00 820.00,500.00
             820.00,500.00 819.00,501.00 819.00,501.00
             819.00,501.00 819.00,500.00 819.00,500.00 Z
           M 850.00,500.00
           C 850.00,500.00 851.00,500.00 851.00,500.00
             851.00,500.00 850.00,501.00 850.00,501.00
             850.00,501.00 850.00,500.00 850.00,500.00 Z
           M 858.00,500.00
           C 858.00,500.00 859.00,500.00 859.00,500.00
             859.00,500.00 858.00,501.00 858.00,501.00
             858.00,501.00 858.00,500.00 858.00,500.00 Z
           M 906.00,500.00
           C 906.00,500.00 907.00,500.00 907.00,500.00
             907.00,500.00 906.00,501.00 906.00,501.00
             906.00,501.00 906.00,500.00 906.00,500.00 Z
           M 304.00,501.00
           C 304.00,501.00 305.00,501.00 305.00,501.00
             305.00,501.00 304.00,502.00 304.00,502.00
             304.00,502.00 304.00,501.00 304.00,501.00 Z
           M 449.00,501.00
           C 449.00,501.00 450.00,501.00 450.00,501.00
             450.00,501.00 449.00,502.00 449.00,502.00
             449.00,502.00 449.00,501.00 449.00,501.00 Z
           M 477.00,501.00
           C 477.00,501.00 478.00,501.00 478.00,501.00
             478.00,501.00 477.00,502.00 477.00,502.00
             477.00,502.00 477.00,501.00 477.00,501.00 Z
           M 490.00,501.00
           C 490.00,501.00 491.00,501.00 491.00,501.00
             491.00,501.00 490.00,502.00 490.00,502.00
             490.00,502.00 490.00,501.00 490.00,501.00 Z
           M 565.00,501.00
           C 565.00,501.00 566.00,501.00 566.00,501.00
             566.00,501.00 565.00,502.00 565.00,502.00
             565.00,502.00 565.00,501.00 565.00,501.00 Z
           M 768.00,501.00
           C 768.00,501.00 764.00,508.00 764.00,508.00
             764.00,508.00 768.00,501.00 768.00,501.00 Z
           M 860.00,501.00
           C 860.00,501.00 861.00,501.00 861.00,501.00
             861.00,501.00 860.00,502.00 860.00,502.00
             860.00,502.00 860.00,501.00 860.00,501.00 Z
           M 283.00,502.00
           C 283.00,502.00 284.00,502.00 284.00,502.00
             284.00,502.00 283.00,503.00 283.00,503.00
             283.00,503.00 283.00,502.00 283.00,502.00 Z
           M 310.00,502.00
           C 313.42,507.28 312.00,524.07 312.00,531.00
             309.40,530.79 307.05,531.12 307.00,528.00
             307.00,528.00 311.00,530.00 311.00,530.00
             311.00,530.00 310.00,502.00 310.00,502.00 Z
           M 432.00,502.00
           C 432.00,502.00 433.00,502.00 433.00,502.00
             433.00,502.00 432.00,503.00 432.00,503.00
             432.00,503.00 432.00,502.00 432.00,502.00 Z
           M 453.00,502.00
           C 453.00,502.00 454.00,502.00 454.00,502.00
             454.00,502.00 453.00,503.00 453.00,503.00
             453.00,503.00 453.00,502.00 453.00,502.00 Z
           M 705.00,502.00
           C 705.00,502.00 703.00,507.00 703.00,507.00
             703.00,507.00 705.00,502.00 705.00,502.00 Z
           M 746.00,502.00
           C 746.00,502.00 747.00,502.00 747.00,502.00
             747.00,502.00 746.00,503.00 746.00,503.00
             746.00,503.00 746.00,502.00 746.00,502.00 Z
           M 821.00,502.00
           C 821.00,502.00 822.00,502.00 822.00,502.00
             822.00,502.00 821.00,503.00 821.00,503.00
             821.00,503.00 821.00,502.00 821.00,502.00 Z
           M 867.00,502.00
           C 867.00,502.00 868.00,502.00 868.00,502.00
             868.00,502.00 867.00,503.00 867.00,503.00
             867.00,503.00 867.00,502.00 867.00,502.00 Z
           M 456.00,503.00
           C 456.00,503.00 463.00,510.00 463.00,510.00
             463.00,510.00 456.00,503.00 456.00,503.00 Z
           M 806.00,503.00
           C 806.00,503.00 807.00,503.00 807.00,503.00
             807.00,503.00 806.00,504.00 806.00,504.00
             806.00,504.00 806.00,503.00 806.00,503.00 Z
           M 433.00,504.00
           C 433.00,504.00 436.00,507.00 436.00,507.00
             436.00,507.00 433.00,504.00 433.00,504.00 Z
           M 623.00,504.00
           C 623.00,504.00 624.00,504.00 624.00,504.00
             624.00,504.00 623.00,505.00 623.00,505.00
             623.00,505.00 623.00,504.00 623.00,504.00 Z
           M 719.00,504.00
           C 719.00,504.00 720.00,504.00 720.00,504.00
             720.00,504.00 719.00,505.00 719.00,505.00
             719.00,505.00 719.00,504.00 719.00,504.00 Z
           M 822.00,504.00
           C 822.00,504.00 823.00,509.00 823.00,509.00
             823.00,509.00 822.00,504.00 822.00,504.00 Z
           M 904.00,504.00
           C 904.00,504.00 903.00,509.00 903.00,509.00
             903.00,509.00 904.00,504.00 904.00,504.00 Z
           M 616.00,505.00
           C 616.00,505.00 617.00,505.00 617.00,505.00
             617.00,505.00 616.00,506.00 616.00,506.00
             616.00,506.00 616.00,505.00 616.00,505.00 Z
           M 655.00,505.00
           C 655.00,505.00 656.00,505.00 656.00,505.00
             656.00,505.00 655.00,506.00 655.00,506.00
             655.00,506.00 655.00,505.00 655.00,505.00 Z
           M 790.00,505.00
           C 790.00,505.00 791.00,505.00 791.00,505.00
             791.00,505.00 790.00,506.00 790.00,506.00
             790.00,506.00 790.00,505.00 790.00,505.00 Z
           M 884.00,505.00
           C 884.00,505.00 885.00,505.00 885.00,505.00
             885.00,505.00 884.00,506.00 884.00,506.00
             884.00,506.00 884.00,505.00 884.00,505.00 Z
           M 622.00,506.00
           C 622.00,506.00 621.00,511.00 621.00,511.00
             621.00,511.00 622.00,506.00 622.00,506.00 Z
           M 681.00,506.00
           C 681.00,506.00 682.00,506.00 682.00,506.00
             682.00,506.00 681.00,507.00 681.00,507.00
             681.00,507.00 681.00,506.00 681.00,506.00 Z
           M 725.00,506.00
           C 725.00,506.00 726.00,506.00 726.00,506.00
             726.00,506.00 725.00,507.00 725.00,507.00
             725.00,507.00 725.00,506.00 725.00,506.00 Z
           M 845.00,506.00
           C 845.00,506.00 846.00,506.00 846.00,506.00
             846.00,506.00 845.00,507.00 845.00,507.00
             845.00,507.00 845.00,506.00 845.00,506.00 Z
           M 879.00,506.00
           C 879.00,506.00 880.00,506.00 880.00,506.00
             880.00,506.00 879.00,507.00 879.00,507.00
             879.00,507.00 879.00,506.00 879.00,506.00 Z
           M 437.00,507.00
           C 437.00,507.00 441.00,510.00 441.00,510.00
             441.00,510.00 437.00,507.00 437.00,507.00 Z
           M 898.00,508.00
           C 898.00,508.00 899.00,508.00 899.00,508.00
             899.00,508.00 898.00,509.00 898.00,509.00
             898.00,509.00 898.00,508.00 898.00,508.00 Z
           M 297.00,510.00
           C 297.00,510.00 304.00,510.00 304.00,510.00
             304.00,510.00 297.00,510.00 297.00,510.00 Z
           M 814.00,510.00
           C 814.00,510.00 821.00,510.00 821.00,510.00
             821.00,510.00 814.00,510.00 814.00,510.00 Z
           M 880.00,509.00
           C 880.00,509.00 881.00,509.00 881.00,509.00
             881.00,509.00 880.00,510.00 880.00,510.00
             880.00,510.00 880.00,509.00 880.00,509.00 Z
           M 885.00,509.00
           C 885.00,509.00 886.00,509.00 886.00,509.00
             886.00,509.00 885.00,510.00 885.00,510.00
             885.00,510.00 885.00,509.00 885.00,509.00 Z
           M 443.00,510.00
           C 443.00,510.00 444.00,510.00 444.00,510.00
             444.00,510.00 443.00,511.00 443.00,511.00
             443.00,511.00 443.00,510.00 443.00,510.00 Z
           M 578.00,510.00
           C 578.00,510.00 576.00,517.00 576.00,517.00
             576.00,517.00 578.00,510.00 578.00,510.00 Z
           M 791.00,510.00
           C 791.00,510.00 791.00,517.00 791.00,517.00
             791.00,517.00 791.00,510.00 791.00,510.00 Z
           M 446.00,511.00
           C 446.00,511.00 447.00,511.00 447.00,511.00
             447.00,511.00 446.00,512.00 446.00,512.00
             446.00,512.00 446.00,511.00 446.00,511.00 Z
           M 540.00,511.00
           C 540.00,511.00 541.00,511.00 541.00,511.00
             541.00,511.00 540.00,512.00 540.00,512.00
             540.00,512.00 540.00,511.00 540.00,511.00 Z
           M 615.00,511.00
           C 615.00,511.00 616.00,511.00 616.00,511.00
             616.00,511.00 615.00,512.00 615.00,512.00
             615.00,512.00 615.00,511.00 615.00,511.00 Z
           M 659.00,511.00
           C 659.00,511.00 659.00,516.00 659.00,516.00
             659.00,516.00 659.00,511.00 659.00,511.00 Z
           M 688.00,511.00
           C 689.39,514.63 688.92,516.69 687.00,520.00
             687.00,520.00 688.00,511.00 688.00,511.00 Z
           M 897.00,511.00
           C 897.00,511.00 898.00,511.00 898.00,511.00
             898.00,511.00 897.00,512.00 897.00,512.00
             897.00,512.00 897.00,511.00 897.00,511.00 Z
           M 902.00,511.00
           C 902.00,511.00 903.00,511.00 903.00,511.00
             903.00,511.00 902.00,512.00 902.00,512.00
             902.00,512.00 902.00,511.00 902.00,511.00 Z
           M 289.00,512.00
           C 289.00,512.00 290.00,512.00 290.00,512.00
             290.00,512.00 289.00,513.00 289.00,513.00
             289.00,513.00 289.00,512.00 289.00,512.00 Z
           M 477.00,512.00
           C 477.00,512.00 478.00,512.00 478.00,512.00
             478.00,512.00 477.00,513.00 477.00,513.00
             477.00,513.00 477.00,512.00 477.00,512.00 Z
           M 490.00,512.00
           C 490.00,512.00 491.00,512.00 491.00,512.00
             491.00,512.00 490.00,513.00 490.00,513.00
             490.00,513.00 490.00,512.00 490.00,512.00 Z
           M 565.00,512.00
           C 565.00,512.00 566.00,512.00 566.00,512.00
             566.00,512.00 565.00,513.00 565.00,513.00
             565.00,513.00 565.00,512.00 565.00,512.00 Z
           M 682.00,512.00
           C 682.00,512.00 683.00,512.00 683.00,512.00
             683.00,512.00 682.00,513.00 682.00,513.00
             682.00,513.00 682.00,512.00 682.00,512.00 Z
           M 881.00,512.00
           C 881.00,512.00 882.00,512.00 882.00,512.00
             882.00,512.00 881.00,513.00 881.00,513.00
             881.00,513.00 881.00,512.00 881.00,512.00 Z
           M 886.00,512.00
           C 886.00,512.00 887.00,512.00 887.00,512.00
             887.00,512.00 886.00,513.00 886.00,513.00
             886.00,513.00 886.00,512.00 886.00,512.00 Z
           M 287.00,513.00
           C 287.00,513.00 288.00,513.00 288.00,513.00
             288.00,513.00 287.00,514.00 287.00,514.00
             287.00,514.00 287.00,513.00 287.00,513.00 Z
           M 296.00,514.00
           C 296.00,514.00 306.00,514.00 306.00,514.00
             306.00,514.00 296.00,514.00 296.00,514.00 Z
           M 348.00,513.00
           C 348.00,513.00 349.00,513.00 349.00,513.00
             349.00,513.00 348.00,514.00 348.00,514.00
             348.00,514.00 348.00,513.00 348.00,513.00 Z
           M 804.00,513.00
           C 804.00,513.00 805.00,513.00 805.00,513.00
             805.00,513.00 804.00,514.00 804.00,514.00
             804.00,514.00 804.00,513.00 804.00,513.00 Z
           M 813.00,514.00
           C 816.16,513.58 822.68,511.60 823.63,516.13
             824.09,518.33 823.17,519.40 822.00,521.00
             822.00,521.00 823.00,514.00 823.00,514.00
             823.00,514.00 813.00,514.00 813.00,514.00 Z
           M 285.00,514.00
           C 285.00,514.00 283.00,517.00 283.00,517.00
             283.00,517.00 283.00,516.00 283.00,516.00
             283.00,516.00 285.00,514.00 285.00,514.00 Z
           M 491.00,514.00
           C 491.00,514.00 492.00,514.00 492.00,514.00
             492.00,514.00 491.00,515.00 491.00,515.00
             491.00,515.00 491.00,514.00 491.00,514.00 Z
           M 802.00,514.00
           C 802.00,514.00 800.00,517.00 800.00,517.00
             800.00,517.00 800.00,516.00 800.00,516.00
             800.00,516.00 802.00,514.00 802.00,514.00 Z
           M 896.00,514.00
           C 896.53,517.15 896.02,517.62 894.00,520.00
             894.00,520.00 896.00,514.00 896.00,514.00 Z
           M 901.00,514.00
           C 901.00,514.00 902.00,514.00 902.00,514.00
             902.00,514.00 901.00,515.00 901.00,515.00
             901.00,515.00 901.00,514.00 901.00,514.00 Z
           M 542.00,515.00
           C 542.00,515.00 545.00,518.00 545.00,518.00
             545.00,518.00 542.00,515.00 542.00,515.00 Z
           M 563.00,515.00
           C 563.00,515.00 560.00,519.00 560.00,519.00
             560.00,519.00 563.00,515.00 563.00,515.00 Z
           M 811.00,515.00
           C 811.00,515.00 812.00,515.00 812.00,515.00
             812.00,515.00 811.00,516.00 811.00,516.00
             811.00,516.00 811.00,515.00 811.00,515.00 Z
           M 882.00,515.00
           C 882.00,515.00 883.00,515.00 883.00,515.00
             883.00,515.00 882.00,516.00 882.00,516.00
             882.00,516.00 882.00,515.00 882.00,515.00 Z
           M 887.00,515.00
           C 887.00,515.00 888.00,519.00 888.00,519.00
             888.00,519.00 887.00,515.00 887.00,515.00 Z
           M 363.00,516.00
           C 363.00,516.00 366.00,519.00 366.00,519.00
             366.00,519.00 363.00,516.00 363.00,516.00 Z
           M 478.00,516.00
           C 478.00,516.00 480.00,520.00 480.00,520.00
             480.00,520.00 478.00,516.00 478.00,516.00 Z
           M 349.00,517.00
           C 349.00,517.00 350.00,517.00 350.00,517.00
             350.00,517.00 349.00,518.00 349.00,518.00
             349.00,518.00 349.00,517.00 349.00,517.00 Z
           M 621.00,517.00
           C 621.00,517.00 622.00,522.00 622.00,522.00
             622.00,522.00 621.00,517.00 621.00,517.00 Z
           M 806.00,517.00
           C 806.00,517.00 807.00,517.00 807.00,517.00
             807.00,517.00 806.00,518.00 806.00,518.00
             806.00,518.00 806.00,517.00 806.00,517.00 Z
           M 495.00,518.00
           C 495.00,518.00 496.00,518.00 496.00,518.00
             496.00,518.00 495.00,519.00 495.00,519.00
             495.00,519.00 495.00,518.00 495.00,518.00 Z
           M 530.00,518.00
           C 530.00,518.00 531.00,518.00 531.00,518.00
             531.00,518.00 530.00,519.00 530.00,519.00
             530.00,519.00 530.00,518.00 530.00,518.00 Z
           M 575.00,518.00
           C 575.00,518.00 576.00,518.00 576.00,518.00
             576.00,518.00 575.00,519.00 575.00,519.00
             575.00,519.00 575.00,518.00 575.00,518.00 Z
           M 660.00,518.00
           C 660.00,518.00 661.00,522.00 661.00,522.00
             661.00,522.00 660.00,518.00 660.00,518.00 Z
           M 785.00,518.00
           C 785.91,523.55 780.52,528.74 775.00,527.00
             781.13,525.70 782.70,523.67 785.00,518.00 Z
           M 799.00,518.00
           C 799.00,518.00 800.00,518.00 800.00,518.00
             800.00,518.00 799.00,519.00 799.00,519.00
             799.00,519.00 799.00,518.00 799.00,518.00 Z
           M 883.00,518.00
           C 885.02,520.38 885.53,520.85 885.00,524.00
             885.00,524.00 883.00,518.00 883.00,518.00 Z
           M 900.00,518.00
           C 900.00,518.00 898.00,524.00 898.00,524.00
             898.00,524.00 900.00,518.00 900.00,518.00 Z
           M 282.00,519.00
           C 282.00,519.00 283.00,519.00 283.00,519.00
             283.00,519.00 282.00,520.00 282.00,520.00
             282.00,520.00 282.00,519.00 282.00,519.00 Z
           M 350.00,519.00
           C 350.00,519.00 357.00,527.00 357.00,527.00
             357.00,527.00 350.00,519.00 350.00,519.00 Z
           M 368.00,519.00
           C 368.00,519.00 369.00,519.00 369.00,519.00
             369.00,519.00 368.00,520.00 368.00,520.00
             368.00,520.00 368.00,519.00 368.00,519.00 Z
           M 380.00,519.00
           C 380.00,519.00 381.00,519.00 381.00,519.00
             381.00,519.00 380.00,520.00 380.00,520.00
             380.00,520.00 380.00,519.00 380.00,519.00 Z
           M 383.00,519.00
           C 384.12,521.83 385.48,529.92 381.00,530.00
             383.72,526.31 383.00,523.44 383.00,519.00 Z
           M 497.00,519.00
           C 497.00,519.00 498.00,519.00 498.00,519.00
             498.00,519.00 497.00,520.00 497.00,520.00
             497.00,520.00 497.00,519.00 497.00,519.00 Z
           M 510.00,519.00
           C 510.00,519.00 511.00,519.00 511.00,519.00
             511.00,519.00 510.00,520.00 510.00,520.00
             510.00,520.00 510.00,519.00 510.00,519.00 Z
           M 548.00,519.00
           C 548.00,519.00 549.00,519.00 549.00,519.00
             549.00,519.00 548.00,520.00 548.00,520.00
             548.00,520.00 548.00,519.00 548.00,519.00 Z
           M 764.00,519.00
           C 764.00,519.00 774.00,528.00 774.00,528.00
             768.15,526.75 765.93,524.65 764.00,519.00 Z
           M 805.00,519.00
           C 805.00,519.00 805.00,524.00 805.00,524.00
             805.00,524.00 805.00,519.00 805.00,519.00 Z
           M 431.00,520.00
           C 431.00,520.00 437.00,522.00 437.00,522.00
             437.00,522.00 432.00,521.00 432.00,521.00
             432.02,526.84 431.70,527.11 435.00,532.00
             429.82,528.68 431.00,525.66 431.00,520.00 Z
           M 574.00,520.00
           C 574.00,520.00 575.00,520.00 575.00,520.00
             575.00,520.00 574.00,521.00 574.00,521.00
             574.00,521.00 574.00,520.00 574.00,520.00 Z
           M 681.00,520.00
           C 681.00,520.00 682.00,520.00 682.00,520.00
             682.00,520.00 681.00,521.00 681.00,521.00
             681.00,521.00 681.00,520.00 681.00,520.00 Z
           M 889.00,520.00
           C 889.00,520.00 890.00,520.00 890.00,520.00
             890.00,520.00 889.00,521.00 889.00,521.00
             889.00,521.00 889.00,520.00 889.00,520.00 Z
           M 481.00,521.00
           C 481.00,521.00 482.00,521.00 482.00,521.00
             482.00,521.00 481.00,522.00 481.00,522.00
             481.00,522.00 481.00,521.00 481.00,521.00 Z
           M 616.00,521.00
           C 616.00,521.00 617.00,521.00 617.00,521.00
             617.00,521.00 616.00,522.00 616.00,522.00
             616.00,522.00 616.00,521.00 616.00,521.00 Z
           M 646.00,521.00
           C 646.00,521.00 647.00,521.00 647.00,521.00
             647.00,521.00 646.00,522.00 646.00,522.00
             646.00,522.00 646.00,521.00 646.00,521.00 Z
           M 790.00,521.00
           C 790.00,521.00 791.00,521.00 791.00,521.00
             791.00,521.00 790.00,522.00 790.00,522.00
             790.00,522.00 790.00,521.00 790.00,521.00 Z
           M 440.00,522.00
           C 440.00,522.00 445.00,523.00 445.00,523.00
             445.00,523.00 440.00,522.00 440.00,522.00 Z
           M 462.00,522.00
           C 462.00,522.00 463.00,522.00 463.00,522.00
             463.00,522.00 462.00,523.00 462.00,523.00
             462.00,523.00 462.00,522.00 462.00,522.00 Z
           M 680.00,522.00
           C 680.00,522.00 681.00,522.00 681.00,522.00
             681.00,522.00 680.00,523.00 680.00,523.00
             680.00,523.00 680.00,522.00 680.00,522.00 Z
           M 686.00,522.00
           C 686.00,522.00 687.00,522.00 687.00,522.00
             687.00,522.00 686.00,523.00 686.00,523.00
             686.00,523.00 686.00,522.00 686.00,522.00 Z
           M 893.00,522.00
           C 893.00,522.00 894.00,522.00 894.00,522.00
             894.00,522.00 893.00,523.00 893.00,523.00
             893.00,523.00 893.00,522.00 893.00,522.00 Z
           M 572.00,523.00
           C 572.00,523.00 570.00,526.00 570.00,526.00
             570.00,526.00 570.00,525.00 570.00,525.00
             570.00,525.00 572.00,523.00 572.00,523.00 Z
           M 617.00,523.00
           C 617.00,523.00 622.00,529.00 622.00,529.00
             622.00,529.00 617.00,523.00 617.00,523.00 Z
           M 656.00,523.00
           C 656.00,523.00 661.00,529.00 661.00,529.00
             661.00,529.00 656.00,523.00 656.00,523.00 Z
           M 662.00,523.00
           C 662.00,523.00 669.00,528.00 669.00,528.00
             669.00,528.00 662.00,523.00 662.00,523.00 Z
           M 288.00,524.00
           C 288.00,524.00 294.00,528.00 294.00,528.00
             294.00,528.00 288.00,524.00 288.00,524.00 Z
           M 461.00,524.00
           C 461.00,524.00 458.00,528.00 458.00,528.00
             458.00,528.00 461.00,524.00 461.00,524.00 Z
           M 484.00,524.00
           C 484.00,524.00 488.00,528.00 488.00,528.00
             488.00,528.00 484.00,524.00 484.00,524.00 Z
           M 624.00,524.00
           C 624.00,524.00 630.00,528.00 630.00,528.00
             630.00,528.00 624.00,524.00 624.00,524.00 Z
           M 679.00,524.00
           C 679.00,524.00 680.00,524.00 680.00,524.00
             680.00,524.00 679.00,525.00 679.00,525.00
             679.00,525.00 679.00,524.00 679.00,524.00 Z
           M 685.00,524.00
           C 685.00,524.00 686.00,524.00 686.00,524.00
             686.00,524.00 685.00,525.00 685.00,525.00
             685.00,525.00 685.00,524.00 685.00,524.00 Z
           M 789.00,524.00
           C 789.00,524.00 787.00,527.00 787.00,527.00
             787.00,527.00 787.00,526.00 787.00,526.00
             787.00,526.00 789.00,524.00 789.00,524.00 Z
           M 820.00,524.00
           C 820.00,524.00 821.00,524.00 821.00,524.00
             821.00,524.00 820.00,525.00 820.00,525.00
             820.00,525.00 820.00,524.00 820.00,524.00 Z
           M 806.00,525.00
           C 806.00,525.00 811.00,528.00 811.00,528.00
             811.00,528.00 806.00,525.00 806.00,525.00 Z
           M 897.00,525.00
           C 897.00,525.00 898.00,525.00 898.00,525.00
             898.00,525.00 897.00,526.00 897.00,526.00
             897.00,526.00 897.00,525.00 897.00,525.00 Z
           M 636.00,526.00
           C 636.00,526.00 637.00,527.00 637.00,527.00
             637.00,527.00 633.00,527.00 633.00,527.00
             633.00,527.00 636.00,526.00 636.00,526.00 Z
           M 814.00,527.00
           C 814.00,527.00 818.00,527.00 818.00,527.00
             818.00,527.00 814.00,527.00 814.00,527.00 Z
           M 886.00,526.00
           C 886.00,526.00 887.00,526.00 887.00,526.00
             887.00,526.00 886.00,527.00 886.00,527.00
             886.00,527.00 886.00,526.00 886.00,526.00 Z
           M 283.00,527.00
           C 283.00,527.00 286.00,530.00 286.00,530.00
             286.00,530.00 283.00,527.00 283.00,527.00 Z
           M 538.00,527.00
           C 538.00,527.00 539.00,527.00 539.00,527.00
             539.00,527.00 538.00,528.00 538.00,528.00
             538.00,528.00 538.00,527.00 538.00,527.00 Z
           M 764.00,527.00
           C 764.00,527.00 765.00,527.00 765.00,527.00
             765.00,527.00 764.00,528.00 764.00,528.00
             764.00,528.00 764.00,527.00 764.00,527.00 Z
           M 800.00,527.00
           C 800.00,527.00 806.00,532.00 806.00,532.00
             806.00,532.00 800.00,527.00 800.00,527.00 Z
           M 489.00,528.00
           C 489.00,528.00 490.00,528.00 490.00,528.00
             490.00,528.00 489.00,529.00 489.00,529.00
             489.00,529.00 489.00,528.00 489.00,528.00 Z
           M 540.00,528.00
           C 540.00,528.00 541.00,528.00 541.00,528.00
             541.00,528.00 540.00,529.00 540.00,529.00
             540.00,529.00 540.00,528.00 540.00,528.00 Z
           M 565.00,528.00
           C 565.00,528.00 566.00,528.00 566.00,528.00
             566.00,528.00 565.00,529.00 565.00,529.00
             565.00,529.00 565.00,528.00 565.00,528.00 Z
           M 641.00,528.00
           C 640.13,530.81 638.83,531.30 636.00,531.00
             636.00,531.00 641.00,528.00 641.00,528.00 Z
           M 766.00,528.00
           C 766.00,528.00 767.00,528.00 767.00,528.00
             767.00,528.00 766.00,529.00 766.00,529.00
             766.00,529.00 766.00,528.00 766.00,528.00 Z
           M 785.00,528.00
           C 784.12,530.73 782.74,531.11 780.00,531.00
             780.00,531.00 785.00,528.00 785.00,528.00 Z
           M 361.00,529.00
           C 361.00,529.00 367.00,532.00 367.00,532.00
             367.00,532.00 361.00,529.00 361.00,529.00 Z
           M 450.00,531.00
           C 450.00,531.00 456.00,530.00 456.00,530.00
             456.00,530.00 450.00,531.00 450.00,531.00 Z
           M 491.00,529.00
           C 491.00,529.00 497.00,532.00 497.00,532.00
             497.00,532.00 491.00,529.00 491.00,529.00 Z
           M 542.00,529.00
           C 542.00,529.00 547.00,532.00 547.00,532.00
             547.00,532.00 542.00,529.00 542.00,529.00 Z
           M 563.00,529.00
           C 563.00,529.00 564.00,530.00 564.00,530.00
             564.00,530.00 559.00,531.00 559.00,531.00
             559.00,531.00 563.00,529.00 563.00,529.00 Z
           M 662.00,529.00
           C 662.00,529.00 666.00,532.00 666.00,532.00
             666.00,532.00 662.00,529.00 662.00,529.00 Z
           M 818.00,529.00
           C 818.00,529.00 819.00,530.00 819.00,530.00
             819.00,530.00 815.00,531.00 815.00,531.00
             815.00,531.00 818.00,529.00 818.00,529.00 Z
           M 887.00,529.00
           C 887.00,529.00 891.00,531.00 891.00,531.00
             891.00,531.00 889.00,535.00 889.00,535.00
             889.00,535.00 887.00,529.00 887.00,529.00 Z
           M 509.00,531.00
           C 509.00,531.00 513.00,531.00 513.00,531.00
             513.00,531.00 509.00,531.00 509.00,531.00 Z
           M 698.00,530.00
           C 698.00,530.00 703.00,531.00 703.00,531.00
             703.00,531.00 698.00,530.00 698.00,530.00 Z
           M 720.00,530.00
           C 720.00,530.00 725.00,531.00 725.00,531.00
             725.00,531.00 720.00,530.00 720.00,530.00 Z
           M 742.00,530.00
           C 742.00,530.00 747.00,531.00 747.00,531.00
             747.00,531.00 742.00,530.00 742.00,530.00 Z
           M 824.00,530.00
           C 824.00,530.00 829.00,531.00 829.00,531.00
             829.00,531.00 824.00,530.00 824.00,530.00 Z
           M 863.00,530.00
           C 863.00,530.00 868.00,531.00 868.00,531.00
             868.00,531.00 863.00,530.00 863.00,530.00 Z
           M 895.00,532.00
           C 895.00,532.00 896.00,532.00 896.00,532.00
             896.00,532.00 895.00,533.00 895.00,533.00
             895.00,533.00 895.00,532.00 895.00,532.00 Z
           M 894.00,535.00
           C 894.00,535.00 892.00,539.00 892.00,539.00
             892.00,539.00 894.00,535.00 894.00,535.00 Z
           M 888.00,543.00
           C 888.00,543.00 889.00,543.00 889.00,543.00
             889.00,543.00 888.00,544.00 888.00,544.00
             888.00,544.00 888.00,543.00 888.00,543.00 Z" />
</svg>
